<svg version="1.1" id="Layer_1" xmlns="http://www.w3.org/2000/svg" xmlns:xlink="http://www.w3.org/1999/xlink" x="0px" y="0px"
	 width="100%" viewBox="0 0 476 71" enable-background="new 0 0 476 71" xml:space="preserve">
<path fill="#462E57" opacity="1.000000" stroke="none" 
	d="
M477.000000,70.000000 
	C476.667114,70.666664 476.452942,71.783707 475.977386,71.909035 
	C474.886993,72.196411 473.669098,72.000000 472.502960,72.000000 
	C315.407501,72.000000 158.312042,72.000000 1.108294,72.000000 
	C1.108294,48.416695 1.108294,24.832727 1.108294,1.000000 
	C138.354660,1.000000 275.709473,1.000000 413.479889,1.349857 
	C421.261627,9.968328 428.590668,18.270388 436.003174,26.497231 
	C445.640015,37.192795 455.267700,47.898567 465.056000,58.454662 
	C468.815369,62.508923 473.005920,66.163368 477.000000,70.000000 
M258.811951,50.436993 
	C261.125519,49.035385 264.677063,48.156483 265.529388,46.137894 
	C268.542847,39.000999 270.632690,31.474127 273.282166,23.461592 
	C264.409363,23.461592 256.144226,23.444717 247.879227,23.468197 
	C243.243469,23.481365 238.606201,23.499168 233.972687,23.626585 
	C227.905563,23.793421 221.842056,24.087877 215.775558,24.283319 
	C214.762100,24.315968 213.673523,24.324305 212.734940,24.004982 
	C205.778427,21.638245 202.231415,23.445484 200.189651,30.485989 
	C199.404465,33.193542 198.591476,35.893044 197.415741,39.864208 
	C196.002289,35.519005 194.882202,32.569649 194.096298,29.533781 
	C193.127899,25.792992 192.111908,23.342821 187.060013,23.224766 
	C181.608414,23.097368 181.294525,26.401638 180.198303,29.773670 
	C179.259995,32.659943 178.379105,35.564884 177.472839,38.461571 
	C175.431213,34.827900 174.124557,31.436522 173.441254,27.923880 
	C172.784225,24.546253 171.379227,22.846512 167.779312,23.489882 
	C162.028809,24.517599 156.410049,23.524353 150.655807,22.927299 
	C135.090897,21.312298 128.441208,27.735172 128.966492,42.854660 
	C126.404152,42.854660 123.852364,42.854660 120.811852,42.854660 
	C120.811852,36.325336 120.811852,30.093498 120.811852,23.786781 
	C106.717110,23.786781 93.119019,23.786781 79.432404,23.786781 
	C79.432404,33.131538 79.432404,42.184120 79.432404,51.332417 
	C83.168259,51.332417 86.558411,51.332417 90.167175,51.332417 
	C90.304558,48.415939 90.426849,45.819828 90.571442,42.750393 
	C95.989021,42.750393 101.086243,42.750393 106.350159,42.750393 
	C106.350159,39.882538 106.350159,37.516792 106.350159,34.900421 
	C103.157593,34.900421 100.334572,34.900303 97.511551,34.900444 
	C91.540955,34.900749 91.540955,34.900806 90.599579,31.847004 
	C96.813843,31.847004 102.896042,31.847004 109.615120,31.847004 
	C109.615120,38.109940 109.615120,44.672916 109.615120,51.743492 
	C122.366432,51.743492 134.493515,51.778393 146.620285,51.731499 
	C155.017960,51.699028 162.943985,50.574165 167.150467,40.839554 
	C168.328644,44.019371 169.317123,46.263733 169.993378,48.598522 
	C171.505966,53.820770 175.728424,50.998283 178.756561,51.641323 
	C181.484024,52.220509 182.509552,50.620220 183.158325,48.179089 
	C184.190353,44.295830 185.563004,40.503094 187.178970,35.464050 
	C188.707993,40.391304 189.858963,43.862862 190.851456,47.379147 
	C191.555115,49.872101 192.040527,52.244434 195.615936,51.712540 
	C199.082520,51.196827 203.353882,53.269669 204.706558,47.533772 
	C205.718506,43.242752 207.653625,39.169441 208.850281,35.895054 
	C212.805267,37.651222 216.371216,39.669083 220.198578,40.810040 
	C223.910110,41.916458 227.890182,42.122009 231.752319,42.723198 
	C231.653503,43.474651 231.554688,44.226101 231.455856,44.977554 
	C227.639847,44.632839 223.498688,45.106667 220.084427,43.750496 
	C215.033264,41.744137 211.557861,44.012920 207.510132,46.044933 
	C214.716141,52.713245 230.177307,54.738308 238.116089,50.265266 
	C241.468826,48.376202 243.269028,45.586586 243.031342,41.688934 
	C242.794098,37.798622 240.303787,35.582840 236.845428,34.749481 
	C233.155228,33.860256 229.322357,33.568253 225.556366,32.985836 
	C224.100113,32.760624 222.656464,32.453876 221.207077,32.184277 
	C221.268265,31.696735 221.329468,31.209194 221.390656,30.721651 
	C229.789078,31.296854 238.187485,31.872055 247.200348,32.489342 
	C247.200348,38.698933 247.200348,45.092651 247.200348,52.201763 
	C251.261383,51.667587 254.664993,51.219887 258.811951,50.436993 
M340.416382,33.921429 
	C337.358429,33.921429 334.300507,33.921429 331.242554,33.921429 
	C331.239380,33.146912 331.236206,32.372395 331.233032,31.597878 
	C337.846832,31.597878 344.460632,31.597878 351.076782,31.597878 
	C351.076782,28.461412 351.076782,26.202370 351.076782,23.889751 
	C328.821442,23.889751 306.848389,23.889751 284.418213,23.889751 
	C287.015198,31.684395 289.385803,38.936649 291.885559,46.144138 
	C292.231232,47.140774 293.032532,48.314396 293.933990,48.727863 
	C299.062073,51.079971 304.319733,52.972263 310.556274,51.128006 
	C310.556274,44.795189 310.556274,38.546360 310.556274,32.083935 
	C313.902710,31.908743 316.792389,31.757462 320.099121,31.584345 
	C320.099121,38.250347 320.099121,44.684822 320.099121,51.270142 
	C330.858032,51.270142 341.208832,51.270142 351.460419,51.270142 
	C351.460419,48.621578 351.460419,46.381226 351.460419,44.208466 
	C344.532471,43.023815 337.596497,44.892059 331.120087,43.071213 
	C331.170929,42.409813 331.221771,41.748409 331.272644,41.087006 
	C336.471924,41.087006 341.671204,41.087006 347.069458,41.087006 
	C347.069458,38.410706 347.069458,36.331615 347.069458,33.921444 
	C344.965179,33.921444 343.155334,33.921444 340.416382,33.921429 
M280.279816,40.867973 
	C280.579590,45.653690 284.620422,44.736603 287.551605,46.057091 
	C285.706787,31.606079 283.348541,24.560484 280.227264,23.759626 
	C280.227264,29.164192 280.227264,34.579262 280.279816,40.867973 
M273.979431,27.567472 
	C272.558716,33.604645 271.138000,39.641815 269.717285,45.678989 
	C270.078735,45.939335 270.440186,46.199680 270.801636,46.460026 
	C272.897552,45.104744 276.535370,44.007984 276.813721,42.347946 
	C277.838837,36.233776 277.751007,29.932995 278.081787,23.702406 
	C277.553589,23.487921 277.025360,23.273438 276.497162,23.058952 
	C275.706757,24.302038 274.916351,25.545124 273.979431,27.567472 
z"/>
<path fill="#000000" opacity="1.000000" stroke="none" 
	d="
M477.000000,69.531342 
	C473.005920,66.163368 468.815369,62.508923 465.056000,58.454662 
	C455.267700,47.898567 445.640015,37.192795 436.003174,26.497231 
	C428.590668,18.270388 421.261627,9.968328 413.947754,1.349857 
	C434.930176,1.000000 455.860321,1.000000 477.000000,1.000000 
	C477.000000,23.687132 477.000000,46.374908 477.000000,69.531342 
z"/>
<path fill="#F8F7F9" opacity="1.000000" stroke="none" 
	d="
M258.440277,50.604591 
	C254.664993,51.219887 251.261383,51.667587 247.200348,52.201763 
	C247.200348,45.092651 247.200348,38.698933 247.200348,32.489342 
	C238.187485,31.872055 229.789078,31.296854 221.390656,30.721651 
	C221.329468,31.209194 221.268265,31.696735 221.207077,32.184277 
	C222.656464,32.453876 224.100113,32.760624 225.556366,32.985836 
	C229.322357,33.568253 233.155228,33.860256 236.845428,34.749481 
	C240.303787,35.582840 242.794098,37.798622 243.031342,41.688934 
	C243.269028,45.586586 241.468826,48.376202 238.116089,50.265266 
	C230.177307,54.738308 214.716141,52.713245 207.510132,46.044933 
	C211.557861,44.012920 215.033264,41.744137 220.084427,43.750496 
	C223.498688,45.106667 227.639847,44.632839 231.455856,44.977554 
	C231.554688,44.226101 231.653503,43.474651 231.752319,42.723198 
	C227.890182,42.122009 223.910110,41.916458 220.198578,40.810040 
	C216.371216,39.669083 212.805267,37.651222 208.850281,35.895054 
	C207.653625,39.169441 205.718506,43.242752 204.706558,47.533772 
	C203.353882,53.269669 199.082520,51.196827 195.615936,51.712540 
	C192.040527,52.244434 191.555115,49.872101 190.851456,47.379147 
	C189.858963,43.862862 188.707993,40.391304 187.178970,35.464050 
	C185.563004,40.503094 184.190353,44.295830 183.158325,48.179089 
	C182.509552,50.620220 181.484024,52.220509 178.756561,51.641323 
	C175.728424,50.998283 171.505966,53.820770 169.993378,48.598522 
	C169.317123,46.263733 168.328644,44.019371 167.150467,40.839554 
	C162.943985,50.574165 155.017960,51.699028 146.620285,51.731499 
	C134.493515,51.778393 122.366432,51.743492 109.615120,51.743492 
	C109.615120,44.672916 109.615120,38.109940 109.615120,31.847004 
	C102.896042,31.847004 96.813843,31.847004 90.599579,31.847004 
	C91.540955,34.900806 91.540955,34.900749 97.511551,34.900444 
	C100.334572,34.900303 103.157593,34.900421 106.350159,34.900421 
	C106.350159,37.516792 106.350159,39.882538 106.350159,42.750393 
	C101.086243,42.750393 95.989021,42.750393 90.571442,42.750393 
	C90.426849,45.819828 90.304558,48.415939 90.167175,51.332417 
	C86.558411,51.332417 83.168259,51.332417 79.432404,51.332417 
	C79.432404,42.184120 79.432404,33.131538 79.432404,23.786781 
	C93.119019,23.786781 106.717110,23.786781 120.811852,23.786781 
	C120.811852,30.093498 120.811852,36.325336 120.811852,42.854660 
	C123.852364,42.854660 126.404152,42.854660 128.966492,42.854660 
	C128.441208,27.735172 135.090897,21.312298 150.655807,22.927299 
	C156.410049,23.524353 162.028809,24.517599 167.779312,23.489882 
	C171.379227,22.846512 172.784225,24.546253 173.441254,27.923880 
	C174.124557,31.436522 175.431213,34.827900 177.472839,38.461571 
	C178.379105,35.564884 179.259995,32.659943 180.198303,29.773670 
	C181.294525,26.401638 181.608414,23.097368 187.060013,23.224766 
	C192.111908,23.342821 193.127899,25.792992 194.096298,29.533781 
	C194.882202,32.569649 196.002289,35.519005 197.415741,39.864208 
	C198.591476,35.893044 199.404465,33.193542 200.189651,30.485989 
	C202.231415,23.445484 205.778427,21.638245 212.734940,24.004982 
	C213.673523,24.324305 214.762100,24.315968 215.775558,24.283319 
	C221.842056,24.087877 227.905563,23.793421 233.972687,23.626585 
	C238.606201,23.499168 243.243469,23.481365 247.879227,23.468197 
	C256.144226,23.444717 264.409363,23.461592 273.282166,23.461592 
	C270.632690,31.474127 268.542847,39.000999 265.529388,46.137894 
	C264.677063,48.156483 261.125519,49.035385 258.440277,50.604591 
M145.942505,43.044094 
	C147.882339,42.823235 149.975555,42.991764 151.730103,42.300579 
	C155.398712,40.855377 157.051208,36.628742 154.462067,34.413509 
	C152.273117,32.540653 148.635422,31.461740 145.735596,31.636448 
	C143.814880,31.752167 141.136246,34.390903 140.447449,36.451790 
	C139.300583,39.883286 142.180603,41.714764 145.942505,43.044094 
M262.906952,40.333611 
	C264.105865,37.684277 265.304749,35.034943 266.622131,32.123787 
	C263.495300,32.123787 261.084595,32.123787 258.453552,32.123787 
	C258.453552,37.504044 258.453552,42.549217 258.453552,47.594387 
	C258.712006,47.701450 258.970459,47.808510 259.228943,47.915569 
	C260.346222,45.614014 261.463501,43.312458 262.906952,40.333611 
z"/>
<path fill="#F7F6F8" opacity="1.000000" stroke="none" 
	d="
M340.880920,33.921436 
	C343.155334,33.921444 344.965179,33.921444 347.069458,33.921444 
	C347.069458,36.331615 347.069458,38.410706 347.069458,41.087006 
	C341.671204,41.087006 336.471924,41.087006 331.272644,41.087006 
	C331.221771,41.748409 331.170929,42.409813 331.120087,43.071213 
	C337.596497,44.892059 344.532471,43.023815 351.460419,44.208466 
	C351.460419,46.381226 351.460419,48.621578 351.460419,51.270142 
	C341.208832,51.270142 330.858032,51.270142 320.099121,51.270142 
	C320.099121,44.684822 320.099121,38.250347 320.099121,31.584345 
	C316.792389,31.757462 313.902710,31.908743 310.556274,32.083935 
	C310.556274,38.546360 310.556274,44.795189 310.556274,51.128006 
	C304.319733,52.972263 299.062073,51.079971 293.933990,48.727863 
	C293.032532,48.314396 292.231232,47.140774 291.885559,46.144138 
	C289.385803,38.936649 287.015198,31.684395 284.418213,23.889751 
	C306.848389,23.889751 328.821442,23.889751 351.076782,23.889751 
	C351.076782,26.202370 351.076782,28.461412 351.076782,31.597878 
	C344.460632,31.597878 337.846832,31.597878 331.233032,31.597878 
	C331.236206,32.372395 331.239380,33.146912 331.242554,33.921429 
	C334.300507,33.921429 337.358429,33.921429 340.880920,33.921436 
M299.156677,46.369835 
	C299.156677,41.601490 299.156677,36.833141 299.156677,31.925171 
	C296.235168,31.925171 293.825043,31.925171 290.293701,31.925171 
	C293.417969,37.402164 296.182526,42.248493 299.156677,46.369835 
z"/>
<path fill="#EFEDF1" opacity="1.000000" stroke="none" 
	d="
M280.253540,40.431152 
	C280.227264,34.579262 280.227264,29.164192 280.227264,23.759626 
	C283.348541,24.560484 285.706787,31.606079 287.551605,46.057091 
	C284.620422,44.736603 280.579590,45.653690 280.253540,40.431152 
z"/>
<path fill="#F0EEF2" opacity="1.000000" stroke="none" 
	d="
M274.052704,27.177841 
	C274.916351,25.545124 275.706757,24.302038 276.497162,23.058952 
	C277.025360,23.273438 277.553589,23.487921 278.081787,23.702406 
	C277.751007,29.932995 277.838837,36.233776 276.813721,42.347946 
	C276.535370,44.007984 272.897552,45.104744 270.801636,46.460026 
	C270.440186,46.199680 270.078735,45.939335 269.717285,45.678989 
	C271.138000,39.641815 272.558716,33.604645 274.052704,27.177841 
z"/>
<path fill="#4E375E" opacity="1.000000" stroke="none" 
	d="
M145.544037,42.959087 
	C142.180603,41.714764 139.300583,39.883286 140.447449,36.451790 
	C141.136246,34.390903 143.814880,31.752167 145.735596,31.636448 
	C148.635422,31.461740 152.273117,32.540653 154.462067,34.413509 
	C157.051208,36.628742 155.398712,40.855377 151.730103,42.300579 
	C149.975555,42.991764 147.882339,42.823235 145.544037,42.959087 
z"/>
<path fill="#5B446A" opacity="1.000000" stroke="none" 
	d="
M262.743866,40.672256 
	C261.463501,43.312458 260.346222,45.614014 259.228943,47.915569 
	C258.970459,47.808510 258.712006,47.701450 258.453552,47.594387 
	C258.453552,42.549217 258.453552,37.504044 258.453552,32.123787 
	C261.084595,32.123787 263.495300,32.123787 266.622131,32.123787 
	C265.304749,35.034943 264.105865,37.684277 262.743866,40.672256 
z"/>
<path fill="#4E365E" opacity="1.000000" stroke="none" 
	d="
M299.051880,46.732330 
	C296.182526,42.248493 293.417969,37.402164 290.293701,31.925171 
	C293.825043,31.925171 296.235168,31.925171 299.156677,31.925171 
	C299.156677,36.833141 299.156677,41.601490 299.051880,46.732330 
z"/>
</svg>