<svg version="1.1" id="Layer_1" xmlns="http://www.w3.org/2000/svg" xmlns:xlink="http://www.w3.org/1999/xlink" x="0px" y="0px"
	 width="100%" viewBox="0 0 3901 1201" enable-background="new 0 0 3901 1201" xml:space="preserve">
<path fill="#FFFFFF" opacity="1.000000" stroke="none" 
	d="
M2538.000000,1204.000000 
	C1692.000000,1204.000000 847.000000,1204.000000 2.000000,1204.000000 
	C2.000000,803.333313 2.000000,402.666656 2.000000,2.000000 
	C1302.666626,2.000000 2603.333252,2.000000 3904.000000,2.000000 
	C3904.000000,402.666656 3904.000000,803.333313 3904.000000,1204.000000 
	C3449.000000,1204.000000 2994.000000,1204.000000 2538.000000,1204.000000 
M676.999756,629.307495 
	C790.658813,629.307495 904.317810,629.307434 1017.976868,629.308167 
	C1020.976746,629.308228 1023.979980,629.227600 1026.976074,629.337463 
	C1061.231201,630.593811 1095.402588,630.991028 1129.538574,626.252869 
	C1164.109009,621.454407 1197.252563,612.597046 1227.850952,595.509644 
	C1271.261963,571.267212 1299.103882,535.458557 1308.396606,486.037323 
	C1308.750977,484.152313 1309.734375,482.385590 1310.724121,479.773621 
	C1311.576660,481.765228 1312.142822,482.929199 1312.583374,484.138947 
	C1328.835449,528.770996 1345.092041,573.401367 1361.306274,618.047180 
	C1365.369995,629.236572 1365.304932,629.293396 1376.762573,629.301086 
	C1405.761841,629.320679 1434.761230,629.307617 1463.760498,629.307556 
	C1475.760254,629.307556 1487.760620,629.388489 1499.759399,629.279480 
	C1508.254150,629.202393 1508.945801,628.583862 1511.910522,620.395325 
	C1512.477417,618.829407 1513.051270,617.263000 1513.534424,615.670166 
	C1532.710571,552.444153 1551.874634,489.214539 1571.050537,425.988495 
	C1571.832031,423.411530 1572.712891,420.864655 1574.288818,416.029022 
	C1583.967041,447.695038 1592.924927,476.833832 1601.775269,506.005280 
	C1613.246948,543.816406 1624.585815,581.667847 1636.087646,619.469727 
	C1639.073730,629.283813 1639.254761,629.290527 1649.198730,629.296692 
	C1690.531006,629.322266 1731.863403,629.326233 1773.195679,629.293579 
	C1782.991333,629.285889 1782.981323,629.164734 1786.438110,619.378784 
	C1789.646118,610.296936 1792.947876,601.247986 1796.234253,592.193970 
	C1818.791260,530.048401 1841.350342,467.903595 1863.934326,405.767822 
	C1864.893066,403.129852 1866.101685,400.582703 1867.837280,396.468414 
	C1870.340576,403.621552 1871.935669,409.246582 1874.235718,414.566711 
	C1883.951050,437.037964 1901.528320,451.930725 1922.531738,463.088928 
	C1959.548706,482.754333 2000.031982,490.457031 2040.976440,495.934906 
	C2065.959961,499.277435 2091.160645,500.980835 2116.166748,504.179962 
	C2126.964111,505.561310 2137.606934,508.531952 2148.141113,511.430573 
	C2153.424316,512.884277 2158.060547,516.576355 2157.989502,522.628540 
	C2157.916016,528.852295 2153.747803,533.161560 2147.992188,535.072083 
	C2141.714844,537.155762 2135.259766,539.054443 2128.732666,539.971558 
	C2107.904541,542.898193 2087.065430,542.056946 2066.117920,540.278503 
	C2026.931030,536.951660 1989.611816,527.164185 1954.126465,510.340210 
	C1949.190674,508.000183 1944.877075,508.177063 1939.878296,510.285095 
	C1905.279297,524.876038 1870.572388,539.211060 1835.921387,553.679321 
	C1833.992920,554.484558 1832.253784,555.743164 1829.867432,557.111206 
	C1858.152832,579.930603 1887.500610,599.208984 1919.934692,613.624084 
	C1965.700195,633.964233 2014.364258,639.926575 2063.657471,641.928406 
	C2094.235596,643.170166 2124.840088,642.078979 2155.266602,638.067139 
	C2187.514160,633.815063 2218.384521,625.470459 2246.421875,608.300781 
	C2268.632324,594.699402 2285.692139,576.556213 2295.450439,552.222778 
	C2304.460449,529.755127 2306.042480,506.394348 2301.123291,482.821045 
	C2297.663086,466.239655 2289.831543,451.867676 2277.670166,439.603943 
	C2264.191650,426.012024 2247.930908,417.217499 2230.570068,410.355164 
	C2198.804199,397.798859 2165.326416,392.181580 2131.625977,388.215363 
	C2103.291992,384.880707 2074.782715,383.035095 2046.453247,379.668030 
	C2036.704834,378.509430 2027.163086,375.057190 2017.760376,371.947540 
	C2015.515137,371.204987 2012.814087,367.588226 2012.892090,365.384369 
	C2012.957520,363.535553 2016.556641,361.416290 2018.977295,360.160767 
	C2021.266846,358.973267 2024.024292,358.495117 2026.634888,358.149536 
	C2052.167236,354.769470 2077.731445,356.093445 2103.219238,358.389496 
	C2142.721436,361.948029 2181.272217,370.688385 2219.511230,380.916870 
	C2228.295166,383.266571 2236.853271,383.595276 2245.901123,380.931427 
	C2281.016602,370.592987 2316.908936,368.399689 2354.271973,372.201202 
	C2354.271973,457.901184 2354.271973,543.671936 2354.271973,629.435425 
	C2357.179932,630.109680 2359.116455,630.959961 2361.047363,630.946472 
	C2392.337158,630.728638 2423.626465,630.193848 2454.914795,630.249695 
	C2462.378662,630.263000 2469.303467,629.312622 2476.249756,626.677368 
	C2510.109375,613.831848 2543.930908,600.868347 2578.022705,588.663330 
	C2586.795166,585.522644 2591.550781,580.721008 2594.444336,571.953430 
	C2627.451416,471.942078 2660.774658,372.035034 2693.998047,272.095032 
	C2695.023438,269.011139 2695.883057,265.872345 2696.998535,262.166473 
	C2693.705811,261.800354 2691.435303,261.300690 2689.174316,261.339996 
	C2680.193359,261.495972 2671.215332,262.045166 2662.236084,262.048523 
	C2530.572510,262.097626 2398.908447,261.917358 2267.246094,262.316406 
	C2252.774658,262.360260 2238.169189,264.900940 2223.898926,267.683563 
	C2214.796875,269.458374 2206.563477,269.681641 2197.640137,266.769562 
	C2159.394531,254.288025 2119.844727,249.644714 2079.813232,249.441162 
	C2053.556641,249.307648 2027.345581,251.547745 2001.503174,256.383087 
	C1969.180664,262.430908 1938.612793,273.182404 1911.504272,292.429535 
	C1909.519043,293.839142 1907.266724,294.872711 1904.423218,296.487335 
	C1906.610107,284.237488 1913.508057,274.387146 1914.227417,262.763824 
	C1912.143066,262.422394 1911.167114,262.123260 1910.190918,262.122620 
	C1866.525391,262.093048 1822.859619,262.048401 1779.194336,262.120941 
	C1771.247437,262.134125 1770.632935,262.839996 1768.045654,271.858307 
	C1750.648315,332.495972 1733.286499,393.143829 1715.875854,453.777649 
	C1713.860474,460.796295 1711.614258,467.748718 1709.045044,476.135498 
	C1707.606812,473.097900 1706.725220,471.676575 1706.233276,470.131165 
	C1695.551147,436.581177 1684.926025,403.013092 1674.261597,369.457489 
	C1663.795410,336.525635 1653.349854,303.587036 1642.776855,270.689453 
	C1640.166870,262.568481 1639.550659,262.131836 1631.606445,262.116028 
	C1594.274292,262.041718 1556.941528,262.045074 1519.609253,262.112366 
	C1511.471802,262.127014 1510.181152,263.080170 1507.519531,271.060883 
	C1503.106812,284.292938 1498.888794,297.590454 1494.656128,310.881958 
	C1477.821899,363.747803 1461.019409,416.623779 1444.174927,469.486359 
	C1443.525024,471.525940 1442.564087,473.466431 1441.215210,476.750427 
	C1436.510010,460.553925 1432.220215,445.929626 1428.013550,431.281494 
	C1412.891724,378.626678 1397.814697,325.958954 1382.680298,273.307800 
	C1379.457031,262.094604 1379.377930,262.092346 1367.482788,262.087097 
	C1335.483521,262.072968 1303.484375,262.082275 1271.485107,262.082275 
	C1258.836670,262.082275 1246.188110,262.082275 1232.559326,262.082275 
	C1237.013550,275.025848 1241.225342,287.265076 1245.972290,301.059204 
	C1234.610229,294.175690 1225.251465,287.860870 1215.330566,282.607910 
	C1173.915283,260.679138 1129.003296,252.297943 1082.789795,250.255722 
	C1055.888306,249.066925 1028.936523,249.804031 1002.190430,254.004059 
	C964.751099,259.883209 928.684509,269.854828 896.382690,290.371368 
	C857.423035,315.116730 831.303833,349.631805 819.625732,394.550354 
	C809.571350,433.223511 812.159790,471.531097 823.585571,509.509125 
	C824.482483,512.490295 824.992188,515.588013 825.685242,518.646729 
	C787.589478,518.646729 750.385315,518.646729 712.026428,518.646729 
	C712.026428,433.229126 712.026428,348.450439 712.026428,263.949158 
	C530.032715,263.949158 349.203918,263.949158 168.110199,263.949158 
	C168.110199,385.807556 168.110199,507.010071 168.110199,628.620850 
	C217.338501,628.620850 266.124512,628.620850 315.994110,628.620850 
	C315.994110,590.166382 315.994110,552.384216 315.994110,514.090271 
	C320.699738,514.090271 324.323486,514.090271 327.947235,514.090271 
	C390.612396,514.090271 453.277588,514.099731 515.942749,514.081665 
	C527.345520,514.078369 527.650391,513.761658 527.662598,502.146667 
	C527.690979,475.147339 527.688599,448.147919 527.663391,421.148590 
	C527.653076,410.136475 527.611511,410.135498 516.570251,410.083374 
	C514.903687,410.075531 513.237000,410.082275 511.570404,410.082275 
	C449.905212,410.082245 388.239990,410.087830 326.574799,410.067505 
	C323.069336,410.066345 319.563934,409.852631 316.187347,409.742035 
	C316.187347,395.912842 316.187347,383.365326 316.187347,369.997131 
	C320.535614,369.750580 324.441772,369.338654 328.348206,369.336090 
	C390.346710,369.295624 452.345398,369.374695 514.343506,369.209290 
	C520.925415,369.191742 527.569336,368.170929 534.068665,366.982269 
	C544.460205,365.081848 554.754578,362.650421 566.197754,360.206970 
	C566.197754,450.334167 566.197754,539.479126 566.197754,629.307312 
	C603.100281,629.307312 639.049988,629.307312 676.999756,629.307495 
M3688.943115,262.080292 
	C3406.093750,262.080292 3123.244385,262.080292 2839.138672,262.080292 
	C2840.372803,266.399628 2841.295410,270.161255 2842.515625,273.823853 
	C2876.198486,374.928131 2909.957520,476.007233 2943.504395,577.156494 
	C2945.482910,583.122131 2948.774902,586.780090 2954.458984,588.963318 
	C2988.252930,601.943848 3021.978027,615.104614 3055.820557,627.956970 
	C3060.067871,629.569946 3064.866943,630.436340 3069.412598,630.444092 
	C3102.391602,630.500366 3135.371582,630.245789 3168.351074,630.094421 
	C3171.975586,630.077820 3175.600098,630.092224 3180.303711,630.092224 
	C3180.803223,625.328491 3181.614746,621.174683 3181.618652,617.020081 
	C3181.694336,540.030090 3181.675293,463.039978 3181.666992,386.049896 
	C3181.666748,383.719543 3181.666016,381.381500 3181.491211,379.060211 
	C3180.935303,371.679230 3181.039551,371.377411 3188.729248,371.342255 
	C3208.726074,371.250824 3228.729004,371.590912 3248.719482,371.224060 
	C3265.354736,370.918762 3281.848633,369.004364 3297.885254,364.171143 
	C3300.234863,363.463043 3302.686768,363.094208 3306.054199,362.357788 
	C3306.054199,451.279083 3306.053955,539.237061 3306.068359,627.195068 
	C3306.068359,627.502258 3306.223633,627.859558 3306.419189,628.102844 
	C3306.618408,628.350464 3306.957275,628.485657 3307.235840,628.659790 
	C3444.051514,628.659790 3580.867188,628.659790 3717.631836,628.659790 
	C3717.631836,594.207703 3717.631836,560.411133 3717.631836,526.935364 
	C3716.640625,526.493347 3716.350342,526.250488 3716.059814,526.250305 
	C3629.072998,526.177612 3542.086426,526.122803 3455.099609,526.051575 
	C3454.109863,526.050720 3453.114746,525.873840 3452.134033,525.708069 
	C3451.852783,525.660461 3451.592285,525.386597 3451.360840,525.174255 
	C3451.116943,524.950439 3450.918945,524.676514 3450.926270,524.685059 
	C3450.926270,513.224854 3450.926270,502.034668 3450.926270,489.875854 
	C3521.314209,489.875854 3591.115234,489.875854 3661.165527,489.875854 
	C3661.165527,458.720184 3661.165527,428.549561 3661.165527,397.227478 
	C3590.870117,397.227478 3521.071289,397.227478 3450.860840,397.227478 
	C3450.860840,386.259796 3450.860840,376.448090 3450.860840,365.310699 
	C3455.255859,365.310699 3459.136230,365.310699 3463.016602,365.310699 
	C3542.006348,365.310699 3620.996338,365.313965 3699.986084,365.307678 
	C3713.665039,365.306580 3713.670654,365.287933 3713.672852,351.285919 
	C3713.677246,325.289276 3713.703125,299.292572 3713.640137,273.296082 
	C3713.631592,269.767914 3713.162109,266.240875 3712.860107,262.080322 
	C3704.845703,262.080322 3697.882812,262.080322 3688.943115,262.080292 
M2890.894043,749.909973 
	C2898.265869,753.753784 2905.614746,757.641968 2913.014160,761.432007 
	C2927.905029,769.058960 2943.864990,770.441895 2959.656982,766.511230 
	C2971.118652,763.658203 2981.801514,757.783447 2992.972656,753.635925 
	C3028.812744,740.330078 3064.724121,727.216553 3100.593994,713.991577 
	C3108.900146,710.929199 3117.151367,707.718933 3125.436523,704.573547 
	C3121.456055,695.050293 3119.746826,693.751648 3109.475586,690.484375 
	C3090.470459,684.439026 3071.350342,678.699829 3052.569336,672.016052 
	C3013.744873,658.199463 2975.121338,643.820740 2936.397461,629.721252 
	C2893.919434,614.254822 2851.168213,599.373413 2810.357910,579.828003 
	C2778.083008,564.370483 2745.905029,564.677490 2713.991455,578.687134 
	C2684.427979,591.665161 2654.165283,602.573303 2623.778564,613.285156 
	C2548.244141,639.912415 2472.742188,666.630859 2397.190430,693.208374 
	C2392.982666,694.688599 2390.162598,696.705322 2390.035156,701.947937 
	C2394.691406,707.186646 2401.119629,709.806213 2407.724609,712.039490 
	C2414.643066,714.378723 2421.723389,716.260193 2428.573975,718.774841 
	C2516.200439,750.939148 2603.775879,783.241516 2691.423828,815.346436 
	C2706.688721,820.937866 2722.035400,826.474609 2737.685059,830.806946 
	C2761.717041,837.459778 2784.865723,834.606873 2807.253174,822.983765 
	C2821.053711,815.818787 2835.560303,809.901489 2850.071533,804.249939 
	C2863.043457,799.197937 2876.427002,795.186462 2889.690186,790.906799 
	C2894.575195,789.330566 2897.173340,786.848572 2895.702393,782.754944 
	C2871.778320,770.427673 2848.867920,758.386169 2825.742188,746.773193 
	C2802.623047,735.163391 2778.529053,727.876038 2752.137695,727.645081 
	C2740.841553,727.546387 2729.357910,723.391235 2718.388916,719.776794 
	C2710.286621,717.107056 2705.707275,710.518860 2705.630127,701.363159 
	C2705.556885,692.654785 2709.732422,686.935425 2717.305908,683.276550 
	C2745.871338,669.476196 2774.323730,669.586731 2802.532471,684.211609 
	C2807.262207,686.663818 2811.816650,689.779480 2811.827881,696.113892 
	C2811.849854,708.403137 2818.807129,715.301331 2829.352539,720.209778 
	C2849.550049,729.610901 2869.499023,739.545166 2890.894043,749.909973 
M2620.195557,830.788025 
	C2579.019531,815.170898 2537.843750,799.553772 2495.322266,783.426392 
	C2489.893799,823.866760 2493.341797,863.165100 2492.224609,903.050720 
	C2504.139648,903.866638 2514.703125,904.378357 2525.221436,905.370728 
	C2535.437988,906.334595 2545.859375,906.767273 2555.757080,909.198975 
	C2617.653564,924.405762 2673.559082,952.036377 2723.495117,991.663879 
	C2731.295898,997.854431 2738.853760,1004.351013 2746.524170,1010.705933 
	C2757.311035,1019.642944 2761.740479,1019.630432 2772.517090,1010.395630 
	C2775.795166,1007.586548 2778.777100,1004.434143 2782.019287,1001.580444 
	C2816.804443,970.963989 2856.172363,947.722595 2898.918457,930.274292 
	C2908.799561,926.240906 2912.663330,920.663452 2912.482666,910.224915 
	C2912.027588,883.920898 2912.344482,857.603821 2912.307373,831.291992 
	C2912.304199,829.181824 2911.957764,827.072144 2911.728271,824.481445 
	C2902.707764,827.531982 2894.382080,829.884583 2886.423340,833.135803 
	C2870.145264,839.785767 2854.292725,847.528259 2837.841797,853.691101 
	C2819.217773,860.668091 2799.984375,866.007812 2781.290527,872.813538 
	C2767.003906,878.014709 2753.057861,880.011475 2738.641113,873.856445 
	C2735.289795,872.425476 2731.638672,871.714478 2728.202881,870.460754 
	C2692.657715,857.490967 2657.128174,844.477661 2620.195557,830.788025 
M2746.335693,514.965942 
	C2747.449707,496.769379 2748.666748,478.578400 2749.647217,460.374664 
	C2750.593506,442.812469 2751.231934,425.233887 2752.121582,407.668365 
	C2753.244873,385.482422 2754.557617,363.305969 2755.653320,341.118713 
	C2756.488525,324.211456 2757.090576,307.292816 2757.838379,290.381104 
	C2758.146484,283.416718 2758.380371,276.441223 2758.984375,269.500031 
	C2759.593018,262.505951 2758.976807,261.477081 2751.615234,261.328888 
	C2743.289062,261.161285 2734.955322,261.181610 2726.627930,261.320648 
	C2718.931641,261.449097 2717.741943,262.351135 2715.845703,270.156342 
	C2712.162109,285.319489 2708.747070,300.547516 2705.141113,315.729675 
	C2686.970703,392.232056 2668.759521,468.724670 2650.621338,545.234680 
	C2649.430176,550.260376 2648.726074,555.401611 2647.636475,561.358215 
	C2650.085205,560.915039 2651.360352,560.873596 2652.493408,560.451538 
	C2681.439209,549.668335 2710.331543,538.739380 2739.336914,528.118896 
	C2745.109131,526.005249 2747.030029,522.385986 2746.335693,514.965942 
M2881.054199,560.129150 
	C2883.137939,560.752075 2885.221680,561.375000 2888.239746,562.277222 
	C2887.955566,558.762634 2888.077881,556.131836 2887.495361,553.667603 
	C2870.859131,483.274475 2854.136475,412.901794 2837.465088,342.516937 
	C2831.652588,317.977142 2825.908936,293.420837 2820.209961,268.854431 
	C2819.350586,265.150665 2818.689453,261.400757 2813.832520,261.367157 
	C2801.992920,261.285217 2790.152344,261.340454 2777.667236,261.340454 
	C2777.667236,264.564667 2777.582520,266.524628 2777.680176,268.475464 
	C2778.975830,294.335022 2780.341797,320.191132 2781.599609,346.052460 
	C2783.003174,374.900024 2784.349609,403.750488 2785.643311,432.603180 
	C2786.030518,441.240112 2785.980957,449.898102 2786.439697,458.530029 
	C2787.406982,476.745941 2788.802490,494.941406 2789.584473,513.164062 
	C2790.085449,524.837524 2789.751709,524.809143 2800.602539,529.014038 
	C2826.912842,539.209656 2853.206299,549.449646 2881.054199,560.129150 
M2944.317139,872.999939 
	C2944.317139,903.980835 2944.309814,934.961792 2944.329102,965.942688 
	C2944.331055,968.933533 2944.416504,971.929504 2944.604980,974.914124 
	C2945.206543,984.448181 2944.480469,993.856018 2942.888428,1003.429749 
	C2937.659668,1004.412903 2933.105225,1005.229675 2928.567383,1006.130310 
	C2917.505127,1008.325623 2907.693115,1012.753296 2900.447266,1021.828735 
	C2890.873291,1033.820435 2891.652832,1049.431030 2903.432129,1059.263550 
	C2909.178711,1064.060669 2916.083008,1068.145996 2923.144043,1070.574829 
	C2952.221191,1080.576660 2979.373779,1061.631104 2980.273926,1030.977417 
	C2981.015137,1005.726379 2981.249756,980.460144 2981.661133,955.199951 
	C2981.709473,952.213440 2981.303955,949.218628 2981.371826,946.233643 
	C2981.573975,937.360657 2981.104736,928.371033 2982.405518,919.651794 
	C2983.825195,910.134094 2991.415771,904.720520 3001.713135,904.141418 
	C3005.698242,903.917297 3009.720703,904.310974 3013.699707,904.038269 
	C3017.578125,903.772461 3021.422852,903.014954 3024.954590,902.519226 
	C3027.509033,889.854309 3026.756104,797.217529 3024.090088,790.096680 
	C3014.417969,790.046326 3005.247803,792.857605 2996.224609,796.258179 
	C2982.850830,801.298279 2969.625488,806.755493 2956.131104,811.442993 
	C2946.925049,814.640991 2944.402100,817.148621 2944.340820,827.027100 
	C2944.250244,841.684204 2944.317383,856.342224 2944.317139,872.999939 
M1486.536011,750.480774 
	C1471.685181,736.605957 1453.670532,730.345154 1433.775635,730.177246 
	C1389.473267,729.803345 1345.165405,730.051941 1300.859863,730.083679 
	C1298.298584,730.085510 1295.737549,730.416260 1292.994507,730.606567 
	C1292.994507,796.684509 1292.994507,862.081177 1292.994507,927.318115 
	C1301.529419,927.318115 1309.319336,927.318115 1318.001709,927.318115 
	C1318.001709,902.043823 1318.001709,877.541992 1318.001709,853.072144 
	C1319.798218,852.623108 1320.729126,852.188660 1321.660767,852.186890 
	C1349.309937,852.134399 1376.959351,852.184265 1404.607910,852.043762 
	C1408.683960,852.022949 1411.257935,853.589355 1413.875854,856.639343 
	C1432.922974,878.832581 1452.138550,900.882141 1471.423462,922.869629 
	C1473.269531,924.974304 1475.871826,927.676025 1478.261597,927.821289 
	C1487.677368,928.393860 1497.148438,928.056030 1508.577759,928.056030 
	C1485.802002,902.049622 1464.511963,877.739624 1442.611328,852.732361 
	C1450.774048,850.225586 1457.531738,848.499084 1464.031006,846.079041 
	C1476.170776,841.558716 1485.981323,834.114136 1493.329590,823.124146 
	C1505.045288,805.601990 1506.416504,771.502197 1486.536011,750.480774 
M1538.456909,888.927917 
	C1537.377441,890.494751 1536.298096,892.061523 1534.950439,894.017578 
	C1552.073608,908.965393 1571.382080,918.906433 1592.378418,925.986511 
	C1617.805664,934.560730 1644.054810,935.199768 1670.377441,933.823181 
	C1688.450317,932.878174 1705.968262,928.582764 1721.897461,919.547424 
	C1735.275513,911.959229 1745.953491,901.819763 1750.809570,886.581482 
	C1758.303589,863.065552 1749.687256,840.891846 1727.996582,831.580017 
	C1716.778320,826.763916 1704.996948,822.333618 1693.036377,820.370789 
	C1670.107910,816.608093 1646.854980,814.854858 1623.766113,812.027344 
	C1607.906006,810.085144 1591.938599,808.270630 1577.892944,799.588257 
	C1565.869385,792.155884 1563.868286,777.604797 1573.210205,767.093689 
	C1580.392944,759.012207 1589.900391,755.171021 1599.844727,752.123779 
	C1616.336548,747.070007 1633.330444,747.054993 1650.327515,747.486389 
	C1676.001831,748.137878 1699.451172,755.245972 1719.584595,771.785889 
	C1721.309814,773.203125 1723.291626,774.307861 1725.531982,775.811218 
	C1731.772827,770.368896 1737.721313,765.181458 1744.104858,759.614685 
	C1736.932617,751.846191 1728.601807,746.990967 1720.203125,742.466309 
	C1684.345825,723.149170 1646.086792,720.175537 1606.682373,726.938782 
	C1589.094116,729.957581 1572.734253,736.370117 1558.628174,747.741333 
	C1551.403931,753.564880 1546.519409,761.010132 1543.720215,769.732056 
	C1537.211304,790.012207 1545.599487,809.057129 1565.775269,819.822632 
	C1588.891846,832.157410 1614.319214,835.266602 1639.812988,838.105713 
	C1656.964966,840.015869 1674.156250,841.726562 1691.208008,844.326904 
	C1701.033447,845.825317 1710.625122,848.768250 1718.934082,854.870422 
	C1724.454590,858.924744 1727.128906,864.269714 1727.735352,870.890991 
	C1728.520996,879.466187 1725.228516,886.473755 1719.425415,892.508484 
	C1713.003174,899.187195 1704.911865,902.964172 1696.254395,905.713318 
	C1675.834106,912.197449 1654.824341,911.617920 1633.868896,910.369385 
	C1614.307617,909.203918 1595.858276,903.484192 1578.923950,893.655579 
	C1569.781982,888.349670 1561.290894,881.922852 1551.806396,875.530090 
	C1547.755493,879.555298 1543.548706,883.735474 1538.456909,888.927917 
M1075.728394,771.068604 
	C1075.728394,765.510010 1075.728394,759.951355 1075.728394,753.319824 
	C1131.113403,753.319824 1185.241943,753.319824 1240.307007,753.319824 
	C1240.307007,748.614868 1240.307129,745.018311 1240.307129,741.421753 
	C1240.307129,737.882385 1240.307007,734.343079 1240.307007,730.678711 
	C1176.817749,730.678711 1114.698486,730.678711 1052.667725,730.678711 
	C1050.790894,744.068542 1051.351196,920.388550 1053.229736,927.551392 
	C1116.360474,927.551392 1179.513916,927.551392 1243.157471,927.551392 
	C1243.157471,920.201050 1243.157471,913.400757 1243.157471,905.413513 
	C1215.048340,905.413513 1187.497681,905.417542 1159.947144,905.412354 
	C1132.099487,905.407166 1104.251099,905.436890 1075.774048,905.390198 
	C1075.805542,882.126099 1075.473877,860.355957 1075.998657,837.709290 
	C1123.229858,837.709290 1169.050415,837.709290 1214.900879,837.709290 
	C1214.900879,830.026794 1214.900879,823.285767 1214.900879,815.691650 
	C1168.237061,815.691650 1122.394897,815.691650 1075.728271,815.691650 
	C1075.728271,800.908081 1075.728271,786.982056 1075.728394,771.068604 
M651.736511,908.910828 
	C651.608032,849.936279 651.480408,790.961731 651.325134,731.987244 
	C651.324463,731.733154 650.932800,731.477478 650.718140,731.227295 
	C650.504944,730.979004 650.284546,730.736816 650.274414,730.725464 
	C642.816040,730.725464 635.628784,730.725464 627.560913,730.725464 
	C627.560913,783.827576 627.560913,836.274353 627.560913,889.414978 
	C625.708862,888.612366 624.677551,888.458069 624.083008,887.865540 
	C601.662476,865.516846 579.234680,843.174927 556.908020,820.732483 
	C528.007507,791.682129 499.211273,762.527954 470.285309,733.502991 
	C468.759338,731.971924 466.483978,730.363770 464.488037,730.270020 
	C456.592621,729.899292 448.669556,730.117798 440.351074,730.117798 
	C440.351074,796.503784 440.351074,861.905762 440.351074,927.241638 
	C448.437073,927.241638 455.837524,927.241638 464.007812,927.241638 
	C464.007812,872.581665 464.007812,818.780029 464.007812,763.183899 
	C467.659424,766.467651 470.118988,768.487915 472.361603,770.725647 
	C495.479065,793.792969 518.561218,816.895630 541.653748,839.987976 
	C568.987732,867.321716 596.288025,894.689392 623.714478,921.930115 
	C626.197876,924.396606 629.299438,927.313049 632.456299,927.799744 
	C638.511169,928.733154 644.811890,928.071411 651.736328,928.071411 
	C651.736328,921.436157 651.736328,916.157593 651.736511,908.910828 
M3629.000000,849.500122 
	C3658.534912,849.500122 3688.069824,849.500122 3717.558594,849.500122 
	C3717.558594,841.587158 3717.558594,835.130920 3717.558594,828.039490 
	C3523.555908,828.039490 3330.329834,828.037537 3137.104004,828.057373 
	C3134.118164,828.057678 3131.131104,828.311951 3128.147705,828.494263 
	C3127.883545,828.510437 3127.634277,828.866211 3127.388428,829.076599 
	C3127.135498,829.293335 3126.895752,829.525879 3126.834473,829.582092 
	C3126.834473,836.006714 3126.834473,842.215576 3126.834473,849.499573 
	C3293.953369,849.499573 3460.476562,849.499573 3629.000000,849.500122 
M213.047333,920.045349 
	C217.246124,922.057129 221.347488,924.311890 225.659683,926.040894 
	C251.915176,936.568604 279.162598,936.862854 306.176666,931.174805 
	C350.387238,921.865967 378.246246,886.510315 378.301666,841.828674 
	C378.343414,808.172485 378.321594,774.516174 378.291138,740.859924 
	C378.288177,737.612854 378.023346,734.366089 377.865234,730.782349 
	C369.847198,730.782349 362.438812,730.782349 354.268036,730.782349 
	C354.268036,735.102905 354.268036,738.712463 354.268036,742.321960 
	C354.268005,771.979431 354.290344,801.636963 354.243256,831.294312 
	C354.236389,835.617920 354.160553,839.970947 353.671143,844.259521 
	C349.960785,876.772522 332.578766,901.064331 299.044434,908.541077 
	C280.568176,912.660522 261.931610,912.532043 243.730270,907.229248 
	C221.066177,900.626038 205.973938,885.724609 198.414474,863.267761 
	C195.090485,853.393127 193.690231,843.266357 193.710754,832.868958 
	C193.770599,802.545166 193.731934,772.221130 193.731888,741.897217 
	C193.731888,738.317444 193.731888,734.737610 193.731888,730.750488 
	C185.248703,730.750488 177.829590,730.750488 169.690063,730.750488 
	C169.690063,735.042053 169.690079,738.663147 169.690079,742.284302 
	C169.690079,774.274414 169.792175,806.264954 169.662369,838.254517 
	C169.522568,872.704468 182.511917,900.241943 213.047333,920.045349 
M977.041809,802.105591 
	C989.372253,778.429932 1002.819519,755.313721 1014.618530,730.063904 
	C1006.596497,730.063904 1000.258545,730.394409 993.973389,729.960754 
	C988.814575,729.604858 986.031494,731.841003 983.899658,736.183167 
	C980.530396,743.045471 976.814758,749.737915 973.236389,756.497375 
	C952.228577,796.181458 931.237366,835.874268 910.192261,875.538513 
	C905.955261,883.524109 901.510376,891.399414 896.519592,900.495056 
	C865.795410,842.694336 835.865784,786.388489 806.287292,730.743164 
	C796.419434,730.743164 787.657471,730.743164 777.743408,730.743164 
	C813.006775,797.160706 847.726318,862.554077 882.528076,928.102295 
	C889.737244,928.102295 896.404297,927.769470 903.020630,928.205872 
	C908.478821,928.565857 911.475159,926.395630 913.954529,921.662598 
	C934.633728,882.184570 955.513123,842.811462 977.041809,802.105591 
M2203.899658,826.917969 
	C2201.552002,829.541260 2199.204346,832.164612 2196.297119,835.413452 
	C2185.665283,821.795410 2175.648193,809.017639 2165.688477,796.195129 
	C2150.385254,776.492798 2135.186279,756.708801 2119.766602,737.098206 
	C2117.621338,734.369812 2114.651367,730.754150 2111.753418,730.443909 
	C2103.371826,729.546753 2094.832031,730.126587 2084.344482,730.126587 
	C2087.526855,734.518188 2089.336182,737.163452 2091.293701,739.694336 
	C2120.807373,777.858582 2150.298096,816.040527 2179.932617,854.110718 
	C2182.957031,857.996338 2184.436279,861.835754 2184.364502,866.826538 
	C2184.109375,884.489380 2184.236572,902.158264 2184.297852,919.824585 
	C2184.306641,922.376465 2184.749023,924.926880 2185.000244,927.578003 
	C2192.875732,927.578003 2200.069824,927.578003 2207.857178,927.578003 
	C2208.023438,923.848816 2208.284912,920.604065 2208.292969,917.358643 
	C2208.335449,900.692200 2208.424805,884.024414 2208.243408,867.359802 
	C2208.190186,862.458740 2209.377441,858.438477 2212.449219,854.493225 
	C2242.489502,815.911804 2272.384766,777.217651 2302.286133,738.528320 
	C2304.036133,736.264099 2305.482178,733.765320 2307.942139,730.062622 
	C2300.976562,730.062622 2295.374512,730.628052 2289.934326,729.930725 
	C2281.676270,728.872131 2276.530273,732.156067 2271.614746,738.661255 
	C2249.551025,767.859436 2227.002930,796.691895 2203.899658,826.917969 
M1980.304199,879.000000 
	C1980.430176,837.353210 1980.555054,795.706482 1980.707153,754.059753 
	C1980.708130,753.802307 1981.072754,753.532532 1981.294312,753.293335 
	C1981.518188,753.051392 1981.775635,752.840576 1983.019287,751.691406 
	C2012.500000,751.691406 2043.027222,751.691406 2073.453125,751.691406 
	C2073.453125,744.044739 2073.453125,737.305542 2073.453125,730.723877 
	C2002.781006,730.723877 1932.961548,730.723877 1863.106201,730.723877 
	C1863.106201,738.139343 1863.106201,744.880127 1863.106201,752.498901 
	C1894.454590,752.498901 1924.981079,752.498901 1956.371582,752.498901 
	C1956.371582,811.233582 1956.371582,869.079895 1956.371582,927.446411 
	C1964.681030,927.446411 1972.097900,927.446411 1980.304443,927.446411 
	C1980.304443,911.539856 1980.304443,896.269897 1980.304199,879.000000 
M741.733032,769.000854 
	C741.623962,756.167053 741.967041,743.313416 741.528564,730.717163 
	C732.850220,730.717163 725.658020,730.717163 718.570435,730.717163 
	C716.544250,746.829285 717.308838,920.779358 719.298401,927.441528 
	C726.538330,927.441528 733.717529,927.441528 741.732849,927.441528 
	C741.732849,874.857300 741.732849,822.928833 741.733032,769.000854 
M1799.689209,881.000000 
	C1799.742065,896.511292 1799.794922,912.022583 1799.847656,927.511963 
	C1808.404175,927.511963 1815.584595,927.511963 1822.655396,927.511963 
	C1824.607666,914.615784 1824.115723,737.742493 1822.192871,730.655518 
	C1814.996704,730.655518 1807.800415,730.655518 1800.869751,730.655518 
	C1800.379517,731.836670 1799.921021,732.426758 1799.919800,733.017700 
	C1799.819946,781.678406 1799.755615,830.339233 1799.689209,881.000000 
z"/>
<path fill="#462C56" opacity="1.000000" stroke="none" 
	d="
M675.999756,629.307373 
	C639.049988,629.307312 603.100281,629.307312 566.197754,629.307312 
	C566.197754,539.479126 566.197754,450.334167 566.197754,360.206970 
	C554.754578,362.650421 544.460205,365.081848 534.068665,366.982269 
	C527.569336,368.170929 520.925415,369.191742 514.343506,369.209290 
	C452.345398,369.374695 390.346710,369.295624 328.348206,369.336090 
	C324.441772,369.338654 320.535614,369.750580 316.187347,369.997131 
	C316.187347,383.365326 316.187347,395.912842 316.187347,409.742035 
	C319.563934,409.852631 323.069336,410.066345 326.574799,410.067505 
	C388.239990,410.087830 449.905212,410.082245 511.570404,410.082275 
	C513.237000,410.082275 514.903687,410.075531 516.570251,410.083374 
	C527.611511,410.135498 527.653076,410.136475 527.663391,421.148590 
	C527.688599,448.147919 527.690979,475.147339 527.662598,502.146667 
	C527.650391,513.761658 527.345520,514.078369 515.942749,514.081665 
	C453.277588,514.099731 390.612396,514.090271 327.947235,514.090271 
	C324.323486,514.090271 320.699738,514.090271 315.994110,514.090271 
	C315.994110,552.384216 315.994110,590.166382 315.994110,628.620850 
	C266.124512,628.620850 217.338501,628.620850 168.110199,628.620850 
	C168.110199,507.010071 168.110199,385.807556 168.110199,263.949158 
	C349.203918,263.949158 530.032715,263.949158 712.026428,263.949158 
	C712.026428,348.450439 712.026428,433.229126 712.026428,518.646729 
	C750.385315,518.646729 787.589478,518.646729 825.685242,518.646729 
	C824.992188,515.588013 824.482483,512.490295 823.585571,509.509125 
	C812.159790,471.531097 809.571350,433.223511 819.625732,394.550354 
	C831.303833,349.631805 857.423035,315.116730 896.382690,290.371368 
	C928.684509,269.854828 964.751099,259.883209 1002.190430,254.004059 
	C1028.936523,249.804031 1055.888306,249.066925 1082.789795,250.255722 
	C1129.003296,252.297943 1173.915283,260.679138 1215.330566,282.607910 
	C1225.251465,287.860870 1234.610229,294.175690 1245.972290,301.059204 
	C1241.225342,287.265076 1237.013550,275.025848 1232.559326,262.082275 
	C1246.188110,262.082275 1258.836670,262.082275 1271.485107,262.082275 
	C1303.484375,262.082275 1335.483521,262.072968 1367.482788,262.087097 
	C1379.377930,262.092346 1379.457031,262.094604 1382.680298,273.307800 
	C1397.814697,325.958954 1412.891724,378.626678 1428.013550,431.281494 
	C1432.220215,445.929626 1436.510010,460.553925 1441.215210,476.750427 
	C1442.564087,473.466431 1443.525024,471.525940 1444.174927,469.486359 
	C1461.019409,416.623779 1477.821899,363.747803 1494.656128,310.881958 
	C1498.888794,297.590454 1503.106812,284.292938 1507.519531,271.060883 
	C1510.181152,263.080170 1511.471802,262.127014 1519.609253,262.112366 
	C1556.941528,262.045074 1594.274292,262.041718 1631.606445,262.116028 
	C1639.550659,262.131836 1640.166870,262.568481 1642.776855,270.689453 
	C1653.349854,303.587036 1663.795410,336.525635 1674.261597,369.457489 
	C1684.926025,403.013092 1695.551147,436.581177 1706.233276,470.131165 
	C1706.725220,471.676575 1707.606812,473.097900 1709.045044,476.135498 
	C1711.614258,467.748718 1713.860474,460.796295 1715.875854,453.777649 
	C1733.286499,393.143829 1750.648315,332.495972 1768.045654,271.858307 
	C1770.632935,262.839996 1771.247437,262.134125 1779.194336,262.120941 
	C1822.859619,262.048401 1866.525391,262.093048 1910.190918,262.122620 
	C1911.167114,262.123260 1912.143066,262.422394 1914.227417,262.763824 
	C1913.508057,274.387146 1906.610107,284.237488 1904.423218,296.487335 
	C1907.266724,294.872711 1909.519043,293.839142 1911.504272,292.429535 
	C1938.612793,273.182404 1969.180664,262.430908 2001.503174,256.383087 
	C2027.345581,251.547745 2053.556641,249.307648 2079.813232,249.441162 
	C2119.844727,249.644714 2159.394531,254.288025 2197.640137,266.769562 
	C2206.563477,269.681641 2214.796875,269.458374 2223.898926,267.683563 
	C2238.169189,264.900940 2252.774658,262.360260 2267.246094,262.316406 
	C2398.908447,261.917358 2530.572510,262.097626 2662.236084,262.048523 
	C2671.215332,262.045166 2680.193359,261.495972 2689.174316,261.339996 
	C2691.435303,261.300690 2693.705811,261.800354 2696.998535,262.166473 
	C2695.883057,265.872345 2695.023438,269.011139 2693.998047,272.095032 
	C2660.774658,372.035034 2627.451416,471.942078 2594.444336,571.953430 
	C2591.550781,580.721008 2586.795166,585.522644 2578.022705,588.663330 
	C2543.930908,600.868347 2510.109375,613.831848 2476.249756,626.677368 
	C2469.303467,629.312622 2462.378662,630.263000 2454.914795,630.249695 
	C2423.626465,630.193848 2392.337158,630.728638 2361.047363,630.946472 
	C2359.116455,630.959961 2357.179932,630.109680 2354.271973,629.435425 
	C2354.271973,543.671936 2354.271973,457.901184 2354.271973,372.201202 
	C2316.908936,368.399689 2281.016602,370.592987 2245.901123,380.931427 
	C2236.853271,383.595276 2228.295166,383.266571 2219.511230,380.916870 
	C2181.272217,370.688385 2142.721436,361.948029 2103.219238,358.389496 
	C2077.731445,356.093445 2052.167236,354.769470 2026.634888,358.149536 
	C2024.024292,358.495117 2021.266846,358.973267 2018.977295,360.160767 
	C2016.556641,361.416290 2012.957520,363.535553 2012.892090,365.384369 
	C2012.814087,367.588226 2015.515137,371.204987 2017.760376,371.947540 
	C2027.163086,375.057190 2036.704834,378.509430 2046.453247,379.668030 
	C2074.782715,383.035095 2103.291992,384.880707 2131.625977,388.215363 
	C2165.326416,392.181580 2198.804199,397.798859 2230.570068,410.355164 
	C2247.930908,417.217499 2264.191650,426.012024 2277.670166,439.603943 
	C2289.831543,451.867676 2297.663086,466.239655 2301.123291,482.821045 
	C2306.042480,506.394348 2304.460449,529.755127 2295.450439,552.222778 
	C2285.692139,576.556213 2268.632324,594.699402 2246.421875,608.300781 
	C2218.384521,625.470459 2187.514160,633.815063 2155.266602,638.067139 
	C2124.840088,642.078979 2094.235596,643.170166 2063.657471,641.928406 
	C2014.364258,639.926575 1965.700195,633.964233 1919.934692,613.624084 
	C1887.500610,599.208984 1858.152832,579.930603 1829.867432,557.111206 
	C1832.253784,555.743164 1833.992920,554.484558 1835.921387,553.679321 
	C1870.572388,539.211060 1905.279297,524.876038 1939.878296,510.285095 
	C1944.877075,508.177063 1949.190674,508.000183 1954.126465,510.340210 
	C1989.611816,527.164185 2026.931030,536.951660 2066.117920,540.278503 
	C2087.065430,542.056946 2107.904541,542.898193 2128.732666,539.971558 
	C2135.259766,539.054443 2141.714844,537.155762 2147.992188,535.072083 
	C2153.747803,533.161560 2157.916016,528.852295 2157.989502,522.628540 
	C2158.060547,516.576355 2153.424316,512.884277 2148.141113,511.430573 
	C2137.606934,508.531952 2126.964111,505.561310 2116.166748,504.179962 
	C2091.160645,500.980835 2065.959961,499.277435 2040.976440,495.934906 
	C2000.031982,490.457031 1959.548706,482.754333 1922.531738,463.088928 
	C1901.528320,451.930725 1883.951050,437.037964 1874.235718,414.566711 
	C1871.935669,409.246582 1870.340576,403.621552 1867.837280,396.468414 
	C1866.101685,400.582703 1864.893066,403.129852 1863.934326,405.767822 
	C1841.350342,467.903595 1818.791260,530.048401 1796.234253,592.193970 
	C1792.947876,601.247986 1789.646118,610.296936 1786.438110,619.378784 
	C1782.981323,629.164734 1782.991333,629.285889 1773.195679,629.293579 
	C1731.863403,629.326233 1690.531006,629.322266 1649.198730,629.296692 
	C1639.254761,629.290527 1639.073730,629.283813 1636.087646,619.469727 
	C1624.585815,581.667847 1613.246948,543.816406 1601.775269,506.005280 
	C1592.924927,476.833832 1583.967041,447.695038 1574.288818,416.029022 
	C1572.712891,420.864655 1571.832031,423.411530 1571.050537,425.988495 
	C1551.874634,489.214539 1532.710571,552.444153 1513.534424,615.670166 
	C1513.051270,617.263000 1512.477417,618.829407 1511.910522,620.395325 
	C1508.945801,628.583862 1508.254150,629.202393 1499.759399,629.279480 
	C1487.760620,629.388489 1475.760254,629.307556 1463.760498,629.307556 
	C1434.761230,629.307617 1405.761841,629.320679 1376.762573,629.301086 
	C1365.304932,629.293396 1365.369995,629.236572 1361.306274,618.047180 
	C1345.092041,573.401367 1328.835449,528.770996 1312.583374,484.138947 
	C1312.142822,482.929199 1311.576660,481.765228 1310.724121,479.773621 
	C1309.734375,482.385590 1308.750977,484.152313 1308.396606,486.037323 
	C1299.103882,535.458557 1271.261963,571.267212 1227.850952,595.509644 
	C1197.252563,612.597046 1164.109009,621.454407 1129.538574,626.252869 
	C1095.402588,630.991028 1061.231201,630.593811 1026.976074,629.337463 
	C1023.979980,629.227600 1020.976746,629.308228 1017.976868,629.308167 
	C904.317810,629.307434 790.658813,629.307495 675.999756,629.307373 
M978.914185,484.054596 
	C981.111267,486.536804 983.067200,489.294647 985.541382,491.460327 
	C1028.818726,529.340698 1098.162842,528.844666 1140.744385,490.091827 
	C1148.330811,483.187561 1154.276123,474.782562 1158.202637,464.988953 
	C1171.384033,432.111542 1153.830200,389.916016 1118.621948,374.532166 
	C1082.653442,358.816101 1045.983887,359.352844 1009.240051,373.653259 
	C970.897766,388.575806 946.472839,443.060120 978.914185,484.054596 
M2541.000488,371.285858 
	C2528.427246,371.285858 2515.854248,371.285858 2502.812988,371.285858 
	C2502.812988,447.399292 2502.812988,522.392761 2502.812988,598.195740 
	C2509.507080,587.409790 2609.601074,379.447845 2609.865967,371.285614 
	C2587.566895,371.285614 2565.283447,371.285614 2541.000488,371.285858 
z"/>
<path fill="#462C56" opacity="1.000000" stroke="none" 
	d="
M3689.931641,262.080322 
	C3697.882812,262.080322 3704.845703,262.080322 3712.860107,262.080322 
	C3713.162109,266.240875 3713.631592,269.767914 3713.640137,273.296082 
	C3713.703125,299.292572 3713.677246,325.289276 3713.672852,351.285919 
	C3713.670654,365.287933 3713.665039,365.306580 3699.986084,365.307678 
	C3620.996338,365.313965 3542.006348,365.310699 3463.016602,365.310699 
	C3459.136230,365.310699 3455.255859,365.310699 3450.860840,365.310699 
	C3450.860840,376.448090 3450.860840,386.259796 3450.860840,397.227478 
	C3521.071289,397.227478 3590.870117,397.227478 3661.165527,397.227478 
	C3661.165527,428.549561 3661.165527,458.720184 3661.165527,489.875854 
	C3591.115234,489.875854 3521.314209,489.875854 3450.926270,489.875854 
	C3450.926270,502.034668 3450.926270,513.224854 3450.926270,524.685059 
	C3450.918945,524.676514 3451.116943,524.950439 3451.360840,525.174255 
	C3451.592285,525.386597 3451.852783,525.660461 3452.134033,525.708069 
	C3453.114746,525.873840 3454.109863,526.050720 3455.099609,526.051575 
	C3542.086426,526.122803 3629.072998,526.177612 3716.059814,526.250305 
	C3716.350342,526.250488 3716.640625,526.493347 3717.631836,526.935364 
	C3717.631836,560.411133 3717.631836,594.207703 3717.631836,628.659790 
	C3580.867188,628.659790 3444.051514,628.659790 3307.235352,628.664978 
	C3306.957275,628.485657 3306.618408,628.350464 3306.419189,628.102844 
	C3306.223633,627.859558 3306.068359,627.502258 3306.068359,627.195068 
	C3306.053955,539.237061 3306.054199,451.279083 3306.054199,362.357788 
	C3302.686768,363.094208 3300.234863,363.463043 3297.885254,364.171143 
	C3281.848633,369.004364 3265.354736,370.918762 3248.719482,371.224060 
	C3228.729004,371.590912 3208.726074,371.250824 3188.729248,371.342255 
	C3181.039551,371.377411 3180.935303,371.679230 3181.491211,379.060211 
	C3181.666016,381.381500 3181.666748,383.719543 3181.666992,386.049896 
	C3181.675293,463.039978 3181.694336,540.030090 3181.618652,617.020081 
	C3181.614746,621.174683 3180.803223,625.328491 3180.303711,630.092224 
	C3175.600098,630.092224 3171.975586,630.077820 3168.351074,630.094421 
	C3135.371582,630.245789 3102.391602,630.500366 3069.412598,630.444092 
	C3064.866943,630.436340 3060.067871,629.569946 3055.820557,627.956970 
	C3021.978027,615.104614 2988.252930,601.943848 2954.458984,588.963318 
	C2948.774902,586.780090 2945.482910,583.122131 2943.504395,577.156494 
	C2909.957520,476.007233 2876.198486,374.928131 2842.515625,273.823853 
	C2841.295410,270.161255 2840.372803,266.399628 2839.138672,262.080292 
	C3123.244385,262.080292 3406.093750,262.080292 3689.931641,262.080322 
M2965.348145,457.773132 
	C2987.086182,503.471405 3008.823975,549.169739 3031.199951,596.209045 
	C3033.304443,580.925171 3032.703613,376.489746 3030.782471,369.663513 
	C3002.171387,368.014954 2932.302490,368.782013 2924.072754,370.982880 
	C2937.606934,399.542999 2951.096436,428.008820 2965.348145,457.773132 
z"/>
<path fill="#462C56" opacity="1.000000" stroke="none" 
	d="
M2890.222656,749.584106 
	C2869.499023,739.545166 2849.550049,729.610901 2829.352539,720.209778 
	C2818.807129,715.301331 2811.849854,708.403137 2811.827881,696.113892 
	C2811.816650,689.779480 2807.262207,686.663818 2802.532471,684.211609 
	C2774.323730,669.586731 2745.871338,669.476196 2717.305908,683.276550 
	C2709.732422,686.935425 2705.556885,692.654785 2705.630127,701.363159 
	C2705.707275,710.518860 2710.286621,717.107056 2718.388916,719.776794 
	C2729.357910,723.391235 2740.841553,727.546387 2752.137695,727.645081 
	C2778.529053,727.876038 2802.623047,735.163391 2825.742188,746.773193 
	C2848.867920,758.386169 2871.778320,770.427673 2895.702393,782.754944 
	C2897.173340,786.848572 2894.575195,789.330566 2889.690186,790.906799 
	C2876.427002,795.186462 2863.043457,799.197937 2850.071533,804.249939 
	C2835.560303,809.901489 2821.053711,815.818787 2807.253174,822.983765 
	C2784.865723,834.606873 2761.717041,837.459778 2737.685059,830.806946 
	C2722.035400,826.474609 2706.688721,820.937866 2691.423828,815.346436 
	C2603.775879,783.241516 2516.200439,750.939148 2428.573975,718.774841 
	C2421.723389,716.260193 2414.643066,714.378723 2407.724609,712.039490 
	C2401.119629,709.806213 2394.691406,707.186646 2390.035156,701.947937 
	C2390.162598,696.705322 2392.982666,694.688599 2397.190430,693.208374 
	C2472.742188,666.630859 2548.244141,639.912415 2623.778564,613.285156 
	C2654.165283,602.573303 2684.427979,591.665161 2713.991455,578.687134 
	C2745.905029,564.677490 2778.083008,564.370483 2810.357910,579.828003 
	C2851.168213,599.373413 2893.919434,614.254822 2936.397461,629.721252 
	C2975.121338,643.820740 3013.744873,658.199463 3052.569336,672.016052 
	C3071.350342,678.699829 3090.470459,684.439026 3109.475586,690.484375 
	C3119.746826,693.751648 3121.456055,695.050293 3125.436523,704.573547 
	C3117.151367,707.718933 3108.900146,710.929199 3100.593994,713.991577 
	C3064.724121,727.216553 3028.812744,740.330078 2992.972656,753.635925 
	C2981.801514,757.783447 2971.118652,763.658203 2959.656982,766.511230 
	C2943.864990,770.441895 2927.905029,769.058960 2913.014160,761.432007 
	C2905.614746,757.641968 2898.265869,753.753784 2890.222656,749.584106 
z"/>
<path fill="#462C56" opacity="1.000000" stroke="none" 
	d="
M2620.895020,831.132324 
	C2657.128174,844.477661 2692.657715,857.490967 2728.202881,870.460754 
	C2731.638672,871.714478 2735.289795,872.425476 2738.641113,873.856445 
	C2753.057861,880.011475 2767.003906,878.014709 2781.290527,872.813538 
	C2799.984375,866.007812 2819.217773,860.668091 2837.841797,853.691101 
	C2854.292725,847.528259 2870.145264,839.785767 2886.423340,833.135803 
	C2894.382080,829.884583 2902.707764,827.531982 2911.728271,824.481445 
	C2911.957764,827.072144 2912.304199,829.181824 2912.307373,831.291992 
	C2912.344482,857.603821 2912.027588,883.920898 2912.482666,910.224915 
	C2912.663330,920.663452 2908.799561,926.240906 2898.918457,930.274292 
	C2856.172363,947.722595 2816.804443,970.963989 2782.019287,1001.580444 
	C2778.777100,1004.434143 2775.795166,1007.586548 2772.517090,1010.395630 
	C2761.740479,1019.630432 2757.311035,1019.642944 2746.524170,1010.705933 
	C2738.853760,1004.351013 2731.295898,997.854431 2723.495117,991.663879 
	C2673.559082,952.036377 2617.653564,924.405762 2555.757080,909.198975 
	C2545.859375,906.767273 2535.437988,906.334595 2525.221436,905.370728 
	C2514.703125,904.378357 2504.139648,903.866638 2492.224609,903.050720 
	C2493.341797,863.165100 2489.893799,823.866760 2495.322266,783.426392 
	C2537.843750,799.553772 2579.019531,815.170898 2620.895020,831.132324 
z"/>
<path fill="#472D56" opacity="1.000000" stroke="none" 
	d="
M2746.335449,515.847229 
	C2747.030029,522.385986 2745.109131,526.005249 2739.336914,528.118896 
	C2710.331543,538.739380 2681.439209,549.668335 2652.493408,560.451538 
	C2651.360352,560.873596 2650.085205,560.915039 2647.636475,561.358215 
	C2648.726074,555.401611 2649.430176,550.260376 2650.621338,545.234680 
	C2668.759521,468.724670 2686.970703,392.232056 2705.141113,315.729675 
	C2708.747070,300.547516 2712.162109,285.319489 2715.845703,270.156342 
	C2717.741943,262.351135 2718.931641,261.449097 2726.627930,261.320648 
	C2734.955322,261.181610 2743.289062,261.161285 2751.615234,261.328888 
	C2758.976807,261.477081 2759.593018,262.505951 2758.984375,269.500031 
	C2758.380371,276.441223 2758.146484,283.416718 2757.838379,290.381104 
	C2757.090576,307.292816 2756.488525,324.211456 2755.653320,341.118713 
	C2754.557617,363.305969 2753.244873,385.482422 2752.121582,407.668365 
	C2751.231934,425.233887 2750.593506,442.812469 2749.647217,460.374664 
	C2748.666748,478.578400 2747.449707,496.769379 2746.335449,515.847229 
z"/>
<path fill="#472D56" opacity="1.000000" stroke="none" 
	d="
M2880.280273,559.900452 
	C2853.206299,549.449646 2826.912842,539.209656 2800.602539,529.014038 
	C2789.751709,524.809143 2790.085449,524.837524 2789.584473,513.164062 
	C2788.802490,494.941406 2787.406982,476.745941 2786.439697,458.530029 
	C2785.980957,449.898102 2786.030518,441.240112 2785.643311,432.603180 
	C2784.349609,403.750488 2783.003174,374.900024 2781.599609,346.052460 
	C2780.341797,320.191132 2778.975830,294.335022 2777.680176,268.475464 
	C2777.582520,266.524628 2777.667236,264.564667 2777.667236,261.340454 
	C2790.152344,261.340454 2801.992920,261.285217 2813.832520,261.367157 
	C2818.689453,261.400757 2819.350586,265.150665 2820.209961,268.854431 
	C2825.908936,293.420837 2831.652588,317.977142 2837.465088,342.516937 
	C2854.136475,412.901794 2870.859131,483.274475 2887.495361,553.667603 
	C2888.077881,556.131836 2887.955566,558.762634 2888.239746,562.277222 
	C2885.221680,561.375000 2883.137939,560.752075 2880.280273,559.900452 
z"/>
<path fill="#482E57" opacity="1.000000" stroke="none" 
	d="
M2944.317139,871.999878 
	C2944.317383,856.342224 2944.250244,841.684204 2944.340820,827.027100 
	C2944.402100,817.148621 2946.925049,814.640991 2956.131104,811.442993 
	C2969.625488,806.755493 2982.850830,801.298279 2996.224609,796.258179 
	C3005.247803,792.857605 3014.417969,790.046326 3024.090088,790.096680 
	C3026.756104,797.217529 3027.509033,889.854309 3024.954590,902.519226 
	C3021.422852,903.014954 3017.578125,903.772461 3013.699707,904.038269 
	C3009.720703,904.310974 3005.698242,903.917297 3001.713135,904.141418 
	C2991.415771,904.720520 2983.825195,910.134094 2982.405518,919.651794 
	C2981.104736,928.371033 2981.573975,937.360657 2981.371826,946.233643 
	C2981.303955,949.218628 2981.709473,952.213440 2981.661133,955.199951 
	C2981.249756,980.460144 2981.015137,1005.726379 2980.273926,1030.977417 
	C2979.373779,1061.631104 2952.221191,1080.576660 2923.144043,1070.574829 
	C2916.083008,1068.145996 2909.178711,1064.060669 2903.432129,1059.263550 
	C2891.652832,1049.431030 2890.873291,1033.820435 2900.447266,1021.828735 
	C2907.693115,1012.753296 2917.505127,1008.325623 2928.567383,1006.130310 
	C2933.105225,1005.229675 2937.659668,1004.412903 2942.888428,1003.429749 
	C2944.480469,993.856018 2945.206543,984.448181 2944.604980,974.914124 
	C2944.416504,971.929504 2944.331055,968.933533 2944.329102,965.942688 
	C2944.309814,934.961792 2944.317139,903.980835 2944.317139,871.999878 
z"/>
<path fill="#7F7E7E" opacity="1.000000" stroke="none" 
	d="
M1487.037109,750.989258 
	C1506.416504,771.502197 1505.045288,805.601990 1493.329590,823.124146 
	C1485.981323,834.114136 1476.170776,841.558716 1464.031006,846.079041 
	C1457.531738,848.499084 1450.774048,850.225586 1442.611328,852.732361 
	C1464.511963,877.739624 1485.802002,902.049622 1508.577759,928.056030 
	C1497.148438,928.056030 1487.677368,928.393860 1478.261597,927.821289 
	C1475.871826,927.676025 1473.269531,924.974304 1471.423462,922.869629 
	C1452.138550,900.882141 1432.922974,878.832581 1413.875854,856.639343 
	C1411.257935,853.589355 1408.683960,852.022949 1404.607910,852.043762 
	C1376.959351,852.184265 1349.309937,852.134399 1321.660767,852.186890 
	C1320.729126,852.188660 1319.798218,852.623108 1318.001709,853.072144 
	C1318.001709,877.541992 1318.001709,902.043823 1318.001709,927.318115 
	C1309.319336,927.318115 1301.529419,927.318115 1292.994507,927.318115 
	C1292.994507,862.081177 1292.994507,796.684509 1292.994507,730.606567 
	C1295.737549,730.416260 1298.298584,730.085510 1300.859863,730.083679 
	C1345.165405,730.051941 1389.473267,729.803345 1433.775635,730.177246 
	C1453.670532,730.345154 1471.685181,736.605957 1487.037109,750.989258 
M1383.000000,753.462402 
	C1361.137573,753.462402 1339.275146,753.462402 1316.872070,753.462402 
	C1316.872070,779.430786 1316.872070,804.198120 1316.872070,829.446533 
	C1318.884277,829.682617 1320.465454,830.028381 1322.046875,830.029968 
	C1354.991211,830.062988 1387.936035,830.171814 1420.879395,829.997070 
	C1432.524170,829.935303 1444.142090,828.838623 1454.977783,824.037292 
	C1467.070190,818.679199 1474.971558,809.896912 1476.215698,796.231018 
	C1477.547363,781.605042 1473.784912,769.235596 1460.401245,761.145996 
	C1451.614502,755.834961 1442.061768,753.535339 1431.920532,753.484192 
	C1416.280640,753.405396 1400.640259,753.462402 1383.000000,753.462402 
z"/>
<path fill="#7E7E7E" opacity="1.000000" stroke="none" 
	d="
M1538.899414,888.421753 
	C1543.548706,883.735474 1547.755493,879.555298 1551.806396,875.530090 
	C1561.290894,881.922852 1569.781982,888.349670 1578.923950,893.655579 
	C1595.858276,903.484192 1614.307617,909.203918 1633.868896,910.369385 
	C1654.824341,911.617920 1675.834106,912.197449 1696.254395,905.713318 
	C1704.911865,902.964172 1713.003174,899.187195 1719.425415,892.508484 
	C1725.228516,886.473755 1728.520996,879.466187 1727.735352,870.890991 
	C1727.128906,864.269714 1724.454590,858.924744 1718.934082,854.870422 
	C1710.625122,848.768250 1701.033447,845.825317 1691.208008,844.326904 
	C1674.156250,841.726562 1656.964966,840.015869 1639.812988,838.105713 
	C1614.319214,835.266602 1588.891846,832.157410 1565.775269,819.822632 
	C1545.599487,809.057129 1537.211304,790.012207 1543.720215,769.732056 
	C1546.519409,761.010132 1551.403931,753.564880 1558.628174,747.741333 
	C1572.734253,736.370117 1589.094116,729.957581 1606.682373,726.938782 
	C1646.086792,720.175537 1684.345825,723.149170 1720.203125,742.466309 
	C1728.601807,746.990967 1736.932617,751.846191 1744.104858,759.614685 
	C1737.721313,765.181458 1731.772827,770.368896 1725.531982,775.811218 
	C1723.291626,774.307861 1721.309814,773.203125 1719.584595,771.785889 
	C1699.451172,755.245972 1676.001831,748.137878 1650.327515,747.486389 
	C1633.330444,747.054993 1616.336548,747.070007 1599.844727,752.123779 
	C1589.900391,755.171021 1580.392944,759.012207 1573.210205,767.093689 
	C1563.868286,777.604797 1565.869385,792.155884 1577.892944,799.588257 
	C1591.938599,808.270630 1607.906006,810.085144 1623.766113,812.027344 
	C1646.854980,814.854858 1670.107910,816.608093 1693.036377,820.370789 
	C1704.996948,822.333618 1716.778320,826.763916 1727.996582,831.580017 
	C1749.687256,840.891846 1758.303589,863.065552 1750.809570,886.581482 
	C1745.953491,901.819763 1735.275513,911.959229 1721.897461,919.547424 
	C1705.968262,928.582764 1688.450317,932.878174 1670.377441,933.823181 
	C1644.054810,935.199768 1617.805664,934.560730 1592.378418,925.986511 
	C1571.382080,918.906433 1552.073608,908.965393 1534.950439,894.017578 
	C1536.298096,892.061523 1537.377441,890.494751 1538.899414,888.421753 
z"/>
<path fill="#7E7D7D" opacity="1.000000" stroke="none" 
	d="
M1075.728271,772.062378 
	C1075.728271,786.982056 1075.728271,800.908081 1075.728271,815.691650 
	C1122.394897,815.691650 1168.237061,815.691650 1214.900879,815.691650 
	C1214.900879,823.285767 1214.900879,830.026794 1214.900879,837.709290 
	C1169.050415,837.709290 1123.229858,837.709290 1075.998657,837.709290 
	C1075.473877,860.355957 1075.805542,882.126099 1075.774048,905.390198 
	C1104.251099,905.436890 1132.099487,905.407166 1159.947144,905.412354 
	C1187.497681,905.417542 1215.048340,905.413513 1243.157471,905.413513 
	C1243.157471,913.400757 1243.157471,920.201050 1243.157471,927.551392 
	C1179.513916,927.551392 1116.360474,927.551392 1053.229736,927.551392 
	C1051.351196,920.388550 1050.790894,744.068542 1052.667725,730.678711 
	C1114.698486,730.678711 1176.817749,730.678711 1240.307007,730.678711 
	C1240.307007,734.343079 1240.307129,737.882385 1240.307129,741.421753 
	C1240.307129,745.018311 1240.307007,748.614868 1240.307007,753.319824 
	C1185.241943,753.319824 1131.113403,753.319824 1075.728394,753.319824 
	C1075.728394,759.951355 1075.728394,765.510010 1075.728271,772.062378 
z"/>
<path fill="#7E7E7E" opacity="1.000000" stroke="none" 
	d="
M651.736450,909.894958 
	C651.736328,916.157593 651.736328,921.436157 651.736328,928.071411 
	C644.811890,928.071411 638.511169,928.733154 632.456299,927.799744 
	C629.299438,927.313049 626.197876,924.396606 623.714478,921.930115 
	C596.288025,894.689392 568.987732,867.321716 541.653748,839.987976 
	C518.561218,816.895630 495.479065,793.792969 472.361603,770.725647 
	C470.118988,768.487915 467.659424,766.467651 464.007812,763.183899 
	C464.007812,818.780029 464.007812,872.581665 464.007812,927.241638 
	C455.837524,927.241638 448.437073,927.241638 440.351074,927.241638 
	C440.351074,861.905762 440.351074,796.503784 440.351074,730.117798 
	C448.669556,730.117798 456.592621,729.899292 464.488037,730.270020 
	C466.483978,730.363770 468.759338,731.971924 470.285309,733.502991 
	C499.211273,762.527954 528.007507,791.682129 556.908020,820.732483 
	C579.234680,843.174927 601.662476,865.516846 624.083008,887.865540 
	C624.677551,888.458069 625.708862,888.612366 627.560913,889.414978 
	C627.560913,836.274353 627.560913,783.827576 627.560913,730.725464 
	C635.628784,730.725464 642.816040,730.725464 650.274414,730.725464 
	C650.284546,730.736816 650.504944,730.979004 650.718140,731.227295 
	C650.932800,731.477478 651.324463,731.733154 651.325134,731.987244 
	C651.480408,790.961731 651.608032,849.936279 651.736450,909.894958 
z"/>
<path fill="#818181" opacity="1.000000" stroke="none" 
	d="
M3628.000000,849.499878 
	C3460.476562,849.499573 3293.953369,849.499573 3126.834473,849.499573 
	C3126.834473,842.215576 3126.834473,836.006714 3126.834473,829.582092 
	C3126.895752,829.525879 3127.135498,829.293335 3127.388428,829.076599 
	C3127.634277,828.866211 3127.883545,828.510437 3128.147705,828.494263 
	C3131.131104,828.311951 3134.118164,828.057678 3137.104004,828.057373 
	C3330.329834,828.037537 3523.555908,828.039490 3717.558594,828.039490 
	C3717.558594,835.130920 3717.558594,841.587158 3717.558594,849.500122 
	C3688.069824,849.500122 3658.534912,849.500122 3628.000000,849.499878 
z"/>
<path fill="#7E7E7E" opacity="1.000000" stroke="none" 
	d="
M212.386658,919.736084 
	C182.511917,900.241943 169.522568,872.704468 169.662369,838.254517 
	C169.792175,806.264954 169.690079,774.274414 169.690079,742.284302 
	C169.690079,738.663147 169.690063,735.042053 169.690063,730.750488 
	C177.829590,730.750488 185.248703,730.750488 193.731888,730.750488 
	C193.731888,734.737610 193.731888,738.317444 193.731888,741.897217 
	C193.731934,772.221130 193.770599,802.545166 193.710754,832.868958 
	C193.690231,843.266357 195.090485,853.393127 198.414474,863.267761 
	C205.973938,885.724609 221.066177,900.626038 243.730270,907.229248 
	C261.931610,912.532043 280.568176,912.660522 299.044434,908.541077 
	C332.578766,901.064331 349.960785,876.772522 353.671143,844.259521 
	C354.160553,839.970947 354.236389,835.617920 354.243256,831.294312 
	C354.290344,801.636963 354.268005,771.979431 354.268036,742.321960 
	C354.268036,738.712463 354.268036,735.102905 354.268036,730.782349 
	C362.438812,730.782349 369.847198,730.782349 377.865234,730.782349 
	C378.023346,734.366089 378.288177,737.612854 378.291138,740.859924 
	C378.321594,774.516174 378.343414,808.172485 378.301666,841.828674 
	C378.246246,886.510315 350.387238,921.865967 306.176666,931.174805 
	C279.162598,936.862854 251.915176,936.568604 225.659683,926.040894 
	C221.347488,924.311890 217.246124,922.057129 212.386658,919.736084 
z"/>
<path fill="#7E7E7E" opacity="1.000000" stroke="none" 
	d="
M976.686951,802.756104 
	C955.513123,842.811462 934.633728,882.184570 913.954529,921.662598 
	C911.475159,926.395630 908.478821,928.565857 903.020630,928.205872 
	C896.404297,927.769470 889.737244,928.102295 882.528076,928.102295 
	C847.726318,862.554077 813.006775,797.160706 777.743408,730.743164 
	C787.657471,730.743164 796.419434,730.743164 806.287292,730.743164 
	C835.865784,786.388489 865.795410,842.694336 896.519592,900.495056 
	C901.510376,891.399414 905.955261,883.524109 910.192261,875.538513 
	C931.237366,835.874268 952.228577,796.181458 973.236389,756.497375 
	C976.814758,749.737915 980.530396,743.045471 983.899658,736.183167 
	C986.031494,731.841003 988.814575,729.604858 993.973389,729.960754 
	C1000.258545,730.394409 1006.596497,730.063904 1014.618530,730.063904 
	C1002.819519,755.313721 989.372253,778.429932 976.686951,802.756104 
z"/>
<path fill="#7E7E7E" opacity="1.000000" stroke="none" 
	d="
M2204.264648,826.287170 
	C2227.002930,796.691895 2249.551025,767.859436 2271.614746,738.661255 
	C2276.530273,732.156067 2281.676270,728.872131 2289.934326,729.930725 
	C2295.374512,730.628052 2300.976562,730.062622 2307.942139,730.062622 
	C2305.482178,733.765320 2304.036133,736.264099 2302.286133,738.528320 
	C2272.384766,777.217651 2242.489502,815.911804 2212.449219,854.493225 
	C2209.377441,858.438477 2208.190186,862.458740 2208.243408,867.359802 
	C2208.424805,884.024414 2208.335449,900.692200 2208.292969,917.358643 
	C2208.284912,920.604065 2208.023438,923.848816 2207.857178,927.578003 
	C2200.069824,927.578003 2192.875732,927.578003 2185.000244,927.578003 
	C2184.749023,924.926880 2184.306641,922.376465 2184.297852,919.824585 
	C2184.236572,902.158264 2184.109375,884.489380 2184.364502,866.826538 
	C2184.436279,861.835754 2182.957031,857.996338 2179.932617,854.110718 
	C2150.298096,816.040527 2120.807373,777.858582 2091.293701,739.694336 
	C2089.336182,737.163452 2087.526855,734.518188 2084.344482,730.126587 
	C2094.832031,730.126587 2103.371826,729.546753 2111.753418,730.443909 
	C2114.651367,730.754150 2117.621338,734.369812 2119.766602,737.098206 
	C2135.186279,756.708801 2150.385254,776.492798 2165.688477,796.195129 
	C2175.648193,809.017639 2185.665283,821.795410 2196.297119,835.413452 
	C2199.204346,832.164612 2201.552002,829.541260 2204.264648,826.287170 
z"/>
<path fill="#7E7C7C" opacity="1.000000" stroke="none" 
	d="
M1980.304321,880.000000 
	C1980.304443,896.269897 1980.304443,911.539856 1980.304443,927.446411 
	C1972.097900,927.446411 1964.681030,927.446411 1956.371582,927.446411 
	C1956.371582,869.079895 1956.371582,811.233582 1956.371582,752.498901 
	C1924.981079,752.498901 1894.454590,752.498901 1863.106201,752.498901 
	C1863.106201,744.880127 1863.106201,738.139343 1863.106201,730.723877 
	C1932.961548,730.723877 2002.781006,730.723877 2073.453125,730.723877 
	C2073.453125,737.305542 2073.453125,744.044739 2073.453125,751.691406 
	C2043.027222,751.691406 2012.500000,751.691406 1983.019287,751.691406 
	C1981.775635,752.840576 1981.518188,753.051392 1981.294312,753.293335 
	C1981.072754,753.532532 1980.708130,753.802307 1980.707153,754.059753 
	C1980.555054,795.706482 1980.430176,837.353210 1980.304321,880.000000 
z"/>
<path fill="#7E7E7E" opacity="1.000000" stroke="none" 
	d="
M741.732910,770.000610 
	C741.732849,822.928833 741.732849,874.857300 741.732849,927.441528 
	C733.717529,927.441528 726.538330,927.441528 719.298401,927.441528 
	C717.308838,920.779358 716.544250,746.829285 718.570435,730.717163 
	C725.658020,730.717163 732.850220,730.717163 741.528564,730.717163 
	C741.967041,743.313416 741.623962,756.167053 741.732910,770.000610 
z"/>
<path fill="#7E7E7E" opacity="1.000000" stroke="none" 
	d="
M1799.688965,880.000000 
	C1799.755615,830.339233 1799.819946,781.678406 1799.919800,733.017700 
	C1799.921021,732.426758 1800.379517,731.836670 1800.869751,730.655518 
	C1807.800415,730.655518 1814.996704,730.655518 1822.195801,730.654785 
	C1824.115723,737.742493 1824.607666,914.615784 1822.655396,927.511963 
	C1815.584595,927.511963 1808.404175,927.511963 1799.847656,927.511963 
	C1799.794922,912.022583 1799.742065,896.511292 1799.688965,880.000000 
z"/>
<path fill="#FEFEFE" opacity="1.000000" stroke="none" 
	d="
M978.413574,483.530243 
	C946.472839,443.060120 970.897766,388.575806 1009.240051,373.653259 
	C1045.983887,359.352844 1082.653442,358.816101 1118.621948,374.532166 
	C1153.830200,389.916016 1171.384033,432.111542 1158.202637,464.988953 
	C1154.276123,474.782562 1148.330811,483.187561 1140.744385,490.091827 
	C1098.162842,528.844666 1028.818726,529.340698 985.541382,491.460327 
	C983.067200,489.294647 981.111267,486.536804 978.413574,483.530243 
z"/>
<path fill="#FCFBFC" opacity="1.000000" stroke="none" 
	d="
M2542.000244,371.285736 
	C2565.283447,371.285614 2587.566895,371.285614 2609.865967,371.285614 
	C2609.601074,379.447845 2509.507080,587.409790 2502.812988,598.195740 
	C2502.812988,522.392761 2502.812988,447.399292 2502.812988,371.285858 
	C2515.854248,371.285858 2528.427246,371.285858 2542.000244,371.285736 
z"/>
<path fill="#FEFDFE" opacity="1.000000" stroke="none" 
	d="
M2964.967041,457.123901 
	C2951.096436,428.008820 2937.606934,399.542999 2924.072754,370.982880 
	C2932.302490,368.782013 3002.171387,368.014954 3030.782471,369.663513 
	C3032.703613,376.489746 3033.304443,580.925171 3031.199951,596.209045 
	C3008.823975,549.169739 2987.086182,503.471405 2964.967041,457.123901 
z"/>
<path fill="#FEFEFE" opacity="1.000000" stroke="none" 
	d="
M1384.000000,753.462097 
	C1400.640259,753.462402 1416.280640,753.405396 1431.920532,753.484192 
	C1442.061768,753.535339 1451.614502,755.834961 1460.401245,761.145996 
	C1473.784912,769.235596 1477.547363,781.605042 1476.215698,796.231018 
	C1474.971558,809.896912 1467.070190,818.679199 1454.977783,824.037292 
	C1444.142090,828.838623 1432.524170,829.935303 1420.879395,829.997070 
	C1387.936035,830.171814 1354.991211,830.062988 1322.046875,830.029968 
	C1320.465454,830.028381 1318.884277,829.682617 1316.872070,829.446533 
	C1316.872070,804.198120 1316.872070,779.430786 1316.872070,753.462402 
	C1339.275146,753.462402 1361.137573,753.462402 1384.000000,753.462097 
z"/>
</svg>