<svg version="1.1" id="Layer_1" xmlns="http://www.w3.org/2000/svg" xmlns:xlink="http://www.w3.org/1999/xlink" x="0px" y="0px"
	 width="100%" viewBox="0 0 263 90" enable-background="new 0 0 263 90" xml:space="preserve">
<path fill="#05282D" opacity="1.000000" stroke="none" 
	d="
M241.000000,91.000000 
	C220.312439,91.000000 199.624878,91.000000 178.626724,90.643524 
	C179.346634,85.355316 180.377136,80.423584 181.574997,74.690994 
	C160.028702,74.690994 139.236557,74.690994 118.376053,74.690994 
	C118.626312,71.719170 118.818283,69.439484 119.333755,66.955841 
	C122.754562,52.185287 125.851875,37.618698 128.977844,22.645203 
	C130.962891,14.005335 130.962891,14.005214 139.484055,14.005189 
	C160.285233,14.005129 181.086411,13.996806 201.887558,14.019319 
	C203.783707,14.021371 205.679626,14.221505 207.837524,14.344593 
	C207.396835,17.119059 207.380600,19.336432 206.665695,21.299349 
	C204.967865,25.961082 206.730438,27.143663 211.238785,27.072792 
	C223.550034,26.879261 235.866333,26.996386 248.180603,27.017769 
	C249.946625,27.020834 251.712402,27.174875 254.053009,27.286436 
	C251.418381,39.679199 248.853897,51.448795 246.428024,63.246887 
	C244.529602,72.479607 242.802948,81.747650 241.000000,91.000000 
M208.022614,52.510826 
	C210.604370,56.097988 209.625397,58.844444 206.696671,61.975349 
	C201.364685,67.675400 196.530182,73.842308 191.529648,79.849014 
	C190.885437,80.622826 190.488495,81.602486 190.025162,82.403549 
	C197.065323,84.206665 202.250702,82.503914 206.093948,76.460526 
	C208.347092,72.917511 211.505905,69.950432 214.597092,66.325882 
	C217.347855,72.244148 219.788055,77.494225 222.102737,82.474266 
	C225.932800,82.474266 229.458160,82.474266 233.568314,82.474266 
	C230.401703,75.461411 227.643478,68.908340 224.481873,62.556049 
	C223.092087,59.763653 223.333405,57.957031 225.439194,55.648075 
	C231.183899,49.349125 236.643555,42.790222 242.433029,36.083042 
	C235.219894,34.362503 229.843430,35.325100 226.105316,41.688522 
	C224.255692,44.837193 221.477570,47.440437 218.815491,50.657928 
	C216.690872,45.732162 215.433914,41.295345 213.024139,37.612934 
	C209.946991,32.910706 205.156097,36.447193 200.427719,35.297356 
	C203.201248,41.519478 205.490784,46.655834 208.022614,52.510826 
M177.084793,66.925034 
	C179.025681,66.074402 180.966568,65.223778 181.718933,64.894051 
	C184.116913,65.821808 185.558167,66.905571 186.729385,66.666473 
	C187.670456,66.474358 188.601608,64.779121 188.977722,63.575981 
	C189.767303,61.050140 190.212280,58.414173 190.757431,55.814754 
	C193.023575,45.008968 195.274399,34.199966 197.623688,22.947386 
	C195.363449,23.051600 193.784317,23.124411 192.305771,23.192583 
	C191.593658,26.322472 190.952988,29.064209 190.349106,31.814022 
	C189.768784,34.456406 189.226501,37.107143 188.468872,40.694843 
	C184.210678,34.182381 178.810486,33.443764 173.141418,35.985077 
	C165.612976,39.359913 162.887360,45.964188 162.815704,53.847977 
	C162.732910,62.958790 167.199081,67.313774 177.084793,66.925034 
M152.433578,58.886181 
	C149.335190,62.608009 145.432602,63.302464 141.281998,61.234894 
	C137.769424,59.485138 136.916428,56.230751 137.562881,52.059078 
	C145.013275,52.059078 152.262848,52.059078 159.426666,52.059078 
	C161.420364,39.562943 154.429718,32.326225 143.698227,35.261322 
	C133.507965,38.048397 127.990761,53.933010 134.338074,62.445679 
	C137.866318,67.177544 142.959686,67.805397 148.261536,66.851517 
	C152.824066,66.030647 156.459839,63.744049 158.002319,58.619972 
	C156.102173,58.619972 154.625351,58.619972 152.433578,58.886181 
z"/>
<path fill="#000000" opacity="1.000000" stroke="none" 
	d="
M241.468735,91.000000 
	C242.802948,81.747650 244.529602,72.479607 246.428024,63.246887 
	C248.853897,51.448795 251.418381,39.679199 254.053009,27.286436 
	C251.712402,27.174875 249.946625,27.020834 248.180603,27.017769 
	C235.866333,26.996386 223.550034,26.879261 211.238785,27.072792 
	C206.730438,27.143663 204.967865,25.961082 206.665695,21.299349 
	C207.380600,19.336432 207.396835,17.119059 207.837524,14.344593 
	C205.679626,14.221505 203.783707,14.021371 201.887558,14.019319 
	C181.086411,13.996806 160.285233,14.005129 139.484055,14.005189 
	C130.962891,14.005214 130.962891,14.005335 128.514191,22.625704 
	C90.307190,23.009575 52.592506,23.016407 14.877864,22.980881 
	C12.150956,22.978312 9.678512,22.714928 8.994594,26.450193 
	C7.116321,36.708515 5.036270,46.930656 2.918597,57.142754 
	C2.769144,57.863464 1.661883,58.385551 1.000000,59.000000 
	C1.000000,39.666588 1.000000,20.333178 1.000000,1.000000 
	C5.098119,1.000000 9.072397,1.000000 13.685690,1.420102 
	C13.756563,6.162579 13.188423,10.484953 12.503678,15.694446 
	C14.781881,13.665406 16.181284,12.213521 17.785727,11.042580 
	C19.751415,9.607996 21.888731,8.408574 23.970898,7.508395 
	C23.758787,11.920883 24.956343,15.179560 29.333862,15.873585 
	C32.619827,16.394550 36.776932,12.053795 36.914639,8.007163 
	C36.993679,5.684506 36.329563,3.336561 36.000000,1.000000 
	C36.444447,1.000000 36.888889,1.000000 37.689461,1.418513 
	C38.377327,5.082426 38.531540,8.361128 39.130917,11.556322 
	C39.360596,12.780689 40.606972,13.814335 41.390060,14.934889 
	C42.151913,14.206201 43.058617,13.576965 43.642696,12.726224 
	C44.590878,11.345152 45.327679,9.818954 46.706902,7.372948 
	C46.968212,10.726958 47.128391,12.782892 47.327354,15.336651 
	C53.594688,13.498179 51.895973,6.668149 56.132347,3.388565 
	C55.576962,7.438179 55.080994,11.054582 54.459610,15.585453 
	C58.149033,14.883161 61.583748,14.229353 65.129974,14.014965 
	C66.151993,14.044211 67.310890,13.852620 67.911705,13.169906 
	C68.707092,12.266088 69.065926,10.978088 69.575462,9.931060 
	C71.539619,12.143908 72.999512,13.788637 74.459404,15.433367 
	C74.982162,12.939221 73.820374,10.316221 74.262978,10.009665 
	C77.954544,7.452857 76.415787,4.163685 76.000000,1.000000 
	C76.750000,1.000000 77.500000,1.000000 78.604118,1.411941 
	C78.245667,6.063023 77.533104,10.302162 76.724808,15.110830 
	C80.361107,14.917440 83.065918,14.773589 85.770729,14.629739 
	C85.773956,14.237720 85.777184,13.845700 85.780411,13.453681 
	C83.922607,13.166941 82.064812,12.880199 80.207008,12.593458 
	C80.077690,12.217927 79.948372,11.842396 79.819054,11.466865 
	C81.933105,10.485769 84.047157,9.504675 86.161209,8.523581 
	C86.026833,8.161695 85.892464,7.799811 85.758087,7.437927 
	C84.215294,7.126946 82.672501,6.815966 81.129707,6.504985 
	C81.037384,6.034436 80.945068,5.563886 80.852745,5.093337 
	C82.202789,4.728194 83.562500,4.032109 84.900734,4.071197 
	C87.228989,4.139202 88.395767,3.474707 88.000000,1.000000 
	C88.444443,1.000000 88.888893,1.000000 89.525772,1.376813 
	C88.964363,6.076358 88.210503,10.399091 87.456650,14.721803 
	C97.411057,16.268744 99.639221,13.091343 99.884392,6.516948 
	C99.951996,4.703909 98.665291,2.840369 98.000000,1.000000 
	C100.700012,1.000000 103.400032,1.000000 106.712540,1.420246 
	C106.742935,6.133302 106.160851,10.426113 105.541855,14.991057 
	C107.824966,14.991057 109.958054,15.440992 111.754807,14.856704 
	C113.354187,14.336597 115.548393,12.837581 115.782143,11.478559 
	C116.367737,8.073937 115.990814,4.503764 116.000000,1.000000 
	C116.444443,1.000000 116.888893,1.000000 117.681213,1.381907 
	C119.365395,6.102551 120.701698,10.441289 122.167381,15.200137 
	C124.866333,10.307078 127.433167,5.653540 130.000000,1.000001 
	C174.544205,1.000000 219.088394,1.000000 264.000000,1.000000 
	C264.000000,9.350632 264.000000,17.706650 263.572083,26.546484 
	C261.987854,27.025469 260.486450,26.558413 259.746185,27.110979 
	C258.152649,28.300507 256.950745,30.014652 255.588547,31.514080 
	C257.281708,32.968899 258.846161,34.639874 260.735657,35.765034 
	C261.426819,36.176620 262.889343,35.292843 264.000000,35.000000 
	C264.000000,53.562641 264.000000,72.125282 264.000000,91.000000 
	C256.648773,91.000000 249.293121,91.000000 241.468735,91.000000 
z"/>
<path fill="#000000" opacity="1.000000" stroke="none" 
	d="
M119.010254,67.159798 
	C118.818283,69.439484 118.626312,71.719170 118.376053,74.690994 
	C139.236557,74.690994 160.028702,74.690994 181.574997,74.690994 
	C180.377136,80.423584 179.346634,85.355316 178.158066,90.643524 
	C118.999977,91.000000 59.999954,91.000000 1.000000,91.000000 
	C1.000000,83.237259 1.000000,75.587326 1.468656,67.467667 
	C40.961628,67.051903 79.985939,67.105850 119.010254,67.159798 
z"/>
<path fill="#D1352A" opacity="1.000000" stroke="none" 
	d="
M119.333748,66.955841 
	C79.985939,67.105850 40.961628,67.051903 1.468656,66.998978 
	C1.000000,64.629440 1.000000,62.258884 1.000000,59.444164 
	C1.661883,58.385551 2.769144,57.863464 2.918597,57.142754 
	C5.036270,46.930656 7.116321,36.708515 8.994594,26.450193 
	C9.678512,22.714928 12.150956,22.978312 14.877864,22.980881 
	C52.592506,23.016407 90.307190,23.009575 128.485535,23.032612 
	C125.851875,37.618698 122.754562,52.185287 119.333748,66.955841 
M107.363060,58.464931 
	C108.746765,58.656288 110.130470,58.847645 111.715157,59.066795 
	C113.682938,49.545700 115.540375,40.558559 117.480698,31.170311 
	C115.611244,31.261501 113.890381,31.086990 113.802818,31.387852 
	C112.028656,37.483578 110.441788,43.633820 108.601067,50.590694 
	C105.580299,44.405800 102.992043,38.864899 100.135803,33.465759 
	C99.576408,32.408337 97.927170,31.247187 96.876160,31.331081 
	C95.921432,31.407291 94.558327,32.990860 94.301193,34.120655 
	C92.465569,42.186066 90.867126,50.305458 89.184937,58.447975 
	C92.416542,59.832321 93.774292,58.880882 94.301857,55.534443 
	C95.084511,50.569881 96.345650,45.680748 97.434586,40.613060 
	C98.221588,41.012836 98.637367,41.080547 98.748924,41.301701 
	C101.514282,46.784374 104.247459,52.283272 107.363060,58.464931 
M15.819482,42.582375 
	C14.394545,47.989780 14.134689,53.325005 18.953594,57.195198 
	C22.983820,60.431973 27.713890,60.002373 32.128216,57.875565 
	C38.247841,54.927162 42.005001,46.094971 40.396160,39.126541 
	C39.065304,33.362156 35.690105,30.666075 29.745934,30.815090 
	C22.426306,30.998590 18.312456,35.298435 15.819482,42.582375 
M62.635956,46.206924 
	C67.735855,38.909882 66.099800,31.939713 58.971836,31.216988 
	C55.213512,30.835918 51.384743,31.149611 47.279549,31.149611 
	C45.719833,40.600487 44.225353,49.656067 42.658028,59.153042 
	C50.581406,58.996277 46.241020,51.997368 48.141262,50.604862 
	C53.648346,49.074463 57.860748,47.903851 62.635956,46.206924 
M69.138939,42.608273 
	C68.333954,47.941483 67.528969,53.274693 66.721817,58.622265 
	C80.853867,60.054985 83.334114,59.583630 83.706535,54.954605 
	C79.801880,54.954605 75.933464,54.954605 71.664276,54.954605 
	C72.260300,51.906059 72.723709,49.535809 73.055145,47.840561 
	C77.019402,45.408718 82.602135,49.807869 85.569916,43.015594 
	C80.985291,43.015594 77.548882,43.015594 73.734482,43.015594 
	C74.257256,40.106667 74.688271,37.708355 75.170158,35.026966 
	C78.064835,35.026966 80.713608,35.120098 83.352531,34.998775 
	C85.642006,34.893513 89.079308,36.176041 88.368889,31.339926 
	C82.640594,31.339926 77.035454,31.339926 71.206825,31.339926 
	C70.562172,34.925083 69.947601,38.342960 69.138939,42.608273 
z"/>
<path fill="#D13328" opacity="1.000000" stroke="none" 
	d="
M65.018463,13.575544 
	C61.583748,14.229353 58.149033,14.883161 54.459610,15.585453 
	C55.080994,11.054582 55.576962,7.438179 56.132347,3.388565 
	C51.895973,6.668149 53.594688,13.498179 47.327354,15.336651 
	C47.128391,12.782892 46.968212,10.726958 46.706902,7.372948 
	C45.327679,9.818954 44.590878,11.345152 43.642696,12.726224 
	C43.058617,13.576965 42.151913,14.206201 41.390060,14.934889 
	C40.606972,13.814335 39.360596,12.780689 39.130917,11.556322 
	C38.531540,8.361128 38.377327,5.082426 38.022797,1.418513 
	C47.020893,1.000000 56.041790,1.000000 65.400909,1.360419 
	C63.666534,2.846810 61.593945,3.972782 58.866482,5.454525 
	C60.615822,6.452050 62.419296,7.480445 64.222771,8.508840 
	C62.748512,9.725165 61.612720,9.712609 60.592312,10.049517 
	C59.689968,10.347441 58.916138,11.034593 58.085567,11.549899 
	C58.948326,12.031838 59.760235,12.712550 60.685715,12.949312 
	C62.087807,13.308003 63.568905,13.357887 65.015411,13.564100 
	C65.014397,13.589229 65.018463,13.575544 65.018463,13.575544 
z"/>
<path fill="#D13328" opacity="1.000000" stroke="none" 
	d="
M115.550018,1.000000 
	C115.990814,4.503764 116.367737,8.073937 115.782143,11.478559 
	C115.548393,12.837581 113.354187,14.336597 111.754807,14.856704 
	C109.958054,15.440992 107.824966,14.991057 105.541855,14.991057 
	C106.160851,10.426113 106.742935,6.133302 107.162514,1.420246 
	C109.700012,1.000000 112.400032,1.000000 115.550018,1.000000 
z"/>
<path fill="#D13228" opacity="1.000000" stroke="none" 
	d="
M35.539364,1.000000 
	C36.329563,3.336561 36.993679,5.684506 36.914639,8.007163 
	C36.776932,12.053795 32.619827,16.394550 29.333862,15.873585 
	C24.956343,15.179560 23.758787,11.920883 24.107670,7.189701 
	C24.150257,4.646727 24.075129,2.823363 24.000000,1.000000 
	C27.692909,1.000000 31.385818,1.000000 35.539364,1.000000 
M32.394218,4.138682 
	C28.342966,4.567772 26.499956,6.921786 27.204908,10.821913 
	C27.353378,11.643306 29.801628,12.970304 30.337774,12.647696 
	C33.347641,10.836605 35.548096,8.416933 32.394218,4.138682 
z"/>
<path fill="#D13328" opacity="1.000000" stroke="none" 
	d="
M65.129974,14.014965 
	C65.018463,13.575544 65.014397,13.589229 65.291092,13.232271 
	C66.045197,8.916876 66.522598,4.958438 67.000000,1.000000 
	C69.700012,1.000000 72.400032,1.000000 75.550018,1.000000 
	C76.415787,4.163685 77.954544,7.452857 74.262978,10.009665 
	C73.820374,10.316221 74.982162,12.939221 74.459404,15.433367 
	C72.999512,13.788637 71.539619,12.143908 69.575462,9.931060 
	C69.065926,10.978088 68.707092,12.266088 67.911705,13.169906 
	C67.310890,13.852620 66.151993,14.044211 65.129974,14.014965 
z"/>
<path fill="#D13328" opacity="1.000000" stroke="none" 
	d="
M23.545891,1.000000 
	C24.075129,2.823363 24.150257,4.646727 24.088614,6.788784 
	C21.888731,8.408574 19.751415,9.607996 17.785727,11.042580 
	C16.181284,12.213521 14.781881,13.665406 12.503678,15.694446 
	C13.188423,10.484953 13.756563,6.162579 14.162352,1.420102 
	C17.030594,1.000000 20.061186,1.000000 23.545891,1.000000 
z"/>
<path fill="#D13328" opacity="1.000000" stroke="none" 
	d="
M97.555832,1.000000 
	C98.665291,2.840369 99.951996,4.703909 99.884392,6.516948 
	C99.639221,13.091343 97.411057,16.268744 87.456650,14.721803 
	C88.210503,10.399091 88.964363,6.076358 89.859108,1.376813 
	C92.370560,1.000000 94.741112,1.000000 97.555832,1.000000 
M96.116081,10.333896 
	C96.174835,8.513973 96.435127,6.660870 96.144951,4.898397 
	C96.075882,4.478899 93.305260,3.991001 93.231400,4.162139 
	C92.045990,6.908864 91.096413,9.757372 90.093208,12.582735 
	C90.501839,12.881381 90.910469,13.180026 91.319099,13.478672 
	C92.743530,12.626767 94.167969,11.774862 96.116081,10.333896 
z"/>
<path fill="#D13328" opacity="1.000000" stroke="none" 
	d="
M87.550018,1.000000 
	C88.395767,3.474707 87.228989,4.139202 84.900734,4.071197 
	C83.562500,4.032109 82.202789,4.728194 80.852745,5.093337 
	C80.945068,5.563886 81.037384,6.034436 81.129707,6.504985 
	C82.672501,6.815966 84.215294,7.126946 85.758087,7.437927 
	C85.892464,7.799811 86.026833,8.161695 86.161209,8.523581 
	C84.047157,9.504675 81.933105,10.485769 79.819054,11.466865 
	C79.948372,11.842396 80.077690,12.217927 80.207008,12.593458 
	C82.064812,12.880199 83.922607,13.166941 85.780411,13.453681 
	C85.777184,13.845700 85.773956,14.237720 85.770729,14.629739 
	C83.065918,14.773589 80.361107,14.917440 76.724808,15.110830 
	C77.533104,10.302162 78.245667,6.063023 78.979118,1.411941 
	C81.700012,1.000000 84.400032,1.000000 87.550018,1.000000 
z"/>
<path fill="#D13228" opacity="1.000000" stroke="none" 
	d="
M129.539368,1.000001 
	C127.433167,5.653540 124.866333,10.307078 122.167381,15.200137 
	C120.701698,10.441289 119.365395,6.102551 118.014549,1.381907 
	C121.692909,1.000000 125.385826,1.000000 129.539368,1.000001 
z"/>
<path fill="#00252A" opacity="1.000000" stroke="none" 
	d="
M264.000000,34.555840 
	C262.889343,35.292843 261.426819,36.176620 260.735657,35.765034 
	C258.846161,34.639874 257.281708,32.968899 255.588547,31.514080 
	C256.950745,30.014652 258.152649,28.300507 259.746185,27.110979 
	C260.486450,26.558413 261.987854,27.025469 263.572083,27.015150 
	C264.000000,29.370558 264.000000,31.741114 264.000000,34.555840 
z"/>
<path fill="#000000" opacity="1.000000" stroke="none" 
	d="
M66.750000,1.000000 
	C66.522598,4.958438 66.045197,8.916876 65.292114,13.207144 
	C63.568905,13.357887 62.087807,13.308003 60.685715,12.949312 
	C59.760235,12.712550 58.948326,12.031838 58.085567,11.549899 
	C58.916138,11.034593 59.689968,10.347441 60.592312,10.049517 
	C61.612720,9.712609 62.748512,9.725165 64.222771,8.508840 
	C62.419296,7.480445 60.615822,6.452050 58.866482,5.454525 
	C61.593945,3.972782 63.666534,2.846810 65.869568,1.360419 
	C66.000000,1.000000 66.500000,1.000000 66.750000,1.000000 
z"/>
<path fill="#F5F7F7" opacity="1.000000" stroke="none" 
	d="
M207.901474,52.151508 
	C205.490784,46.655834 203.201248,41.519478 200.427719,35.297356 
	C205.156097,36.447193 209.946991,32.910706 213.024139,37.612934 
	C215.433914,41.295345 216.690872,45.732162 218.815491,50.657928 
	C221.477570,47.440437 224.255692,44.837193 226.105316,41.688522 
	C229.843430,35.325100 235.219894,34.362503 242.433029,36.083042 
	C236.643555,42.790222 231.183899,49.349125 225.439194,55.648075 
	C223.333405,57.957031 223.092087,59.763653 224.481873,62.556049 
	C227.643478,68.908340 230.401703,75.461411 233.568314,82.474266 
	C229.458160,82.474266 225.932800,82.474266 222.102737,82.474266 
	C219.788055,77.494225 217.347855,72.244148 214.597092,66.325882 
	C211.505905,69.950432 208.347092,72.917511 206.093948,76.460526 
	C202.250702,82.503914 197.065323,84.206665 190.025162,82.403549 
	C190.488495,81.602486 190.885437,80.622826 191.529648,79.849014 
	C196.530182,73.842308 201.364685,67.675400 206.696671,61.975349 
	C209.625397,58.844444 210.604370,56.097988 207.901474,52.151508 
z"/>
<path fill="#F2F4F4" opacity="1.000000" stroke="none" 
	d="
M176.657745,66.980087 
	C167.199081,67.313774 162.732910,62.958790 162.815704,53.847977 
	C162.887360,45.964188 165.612976,39.359913 173.141418,35.985077 
	C178.810486,33.443764 184.210678,34.182381 188.468872,40.694843 
	C189.226501,37.107143 189.768784,34.456406 190.349106,31.814022 
	C190.952988,29.064209 191.593658,26.322472 192.305771,23.192583 
	C193.784317,23.124411 195.363449,23.051600 197.623688,22.947386 
	C195.274399,34.199966 193.023575,45.008968 190.757431,55.814754 
	C190.212280,58.414173 189.767303,61.050140 188.977722,63.575981 
	C188.601608,64.779121 187.670456,66.474358 186.729385,66.666473 
	C185.558167,66.905571 184.116913,65.821808 181.718933,64.894051 
	C180.966568,65.223778 179.025681,66.074402 176.657745,66.980087 
M184.553024,56.840385 
	C185.348557,53.832615 186.665314,50.850235 186.813370,47.810921 
	C187.018417,43.601906 184.838287,40.489754 180.382446,39.691776 
	C175.725327,38.857750 171.071014,42.179073 169.137161,47.527031 
	C166.971024,53.517334 168.160309,59.012226 172.140915,61.405468 
	C175.783951,63.595749 179.706482,62.305279 184.553024,56.840385 
M183.772018,63.587627 
	C183.577316,63.576302 183.382599,63.564980 183.187881,63.553665 
	C183.279037,63.665058 183.370178,63.776451 183.772018,63.587627 
z"/>
<path fill="#F6F7F7" opacity="1.000000" stroke="none" 
	d="
M152.791061,58.753075 
	C154.625351,58.619972 156.102173,58.619972 158.002319,58.619972 
	C156.459839,63.744049 152.824066,66.030647 148.261536,66.851517 
	C142.959686,67.805397 137.866318,67.177544 134.338074,62.445679 
	C127.990761,53.933010 133.507965,38.048397 143.698227,35.261322 
	C154.429718,32.326225 161.420364,39.562943 159.426666,52.059078 
	C152.262848,52.059078 145.013275,52.059078 137.562881,52.059078 
	C136.916428,56.230751 137.769424,59.485138 141.281998,61.234894 
	C145.432602,63.302464 149.335190,62.608009 152.791061,58.753075 
M153.194641,42.396286 
	C151.066986,39.281452 147.769241,38.513119 144.889297,40.107639 
	C142.114120,41.644165 140.088242,44.534042 136.880630,47.660217 
	C144.047836,47.660217 149.268356,47.660217 154.947693,47.660217 
	C154.432251,45.823788 154.037598,44.417698 153.194641,42.396286 
z"/>
<path fill="#FCF1F0" opacity="1.000000" stroke="none" 
	d="
M107.174713,58.122108 
	C104.247459,52.283272 101.514282,46.784374 98.748924,41.301701 
	C98.637367,41.080547 98.221588,41.012836 97.434586,40.613060 
	C96.345650,45.680748 95.084511,50.569881 94.301857,55.534443 
	C93.774292,58.880882 92.416542,59.832321 89.184937,58.447975 
	C90.867126,50.305458 92.465569,42.186066 94.301193,34.120655 
	C94.558327,32.990860 95.921432,31.407291 96.876160,31.331081 
	C97.927170,31.247187 99.576408,32.408337 100.135803,33.465759 
	C102.992043,38.864899 105.580299,44.405800 108.601067,50.590694 
	C110.441788,43.633820 112.028656,37.483578 113.802818,31.387852 
	C113.890381,31.086990 115.611244,31.261501 117.480698,31.170311 
	C115.540375,40.558559 113.682938,49.545700 111.715157,59.066795 
	C110.130470,58.847645 108.746765,58.656288 107.174713,58.122108 
z"/>
<path fill="#FCF1F1" opacity="1.000000" stroke="none" 
	d="
M15.905943,42.189110 
	C18.312456,35.298435 22.426306,30.998590 29.745934,30.815090 
	C35.690105,30.666075 39.065304,33.362156 40.396160,39.126541 
	C42.005001,46.094971 38.247841,54.927162 32.128216,57.875565 
	C27.713890,60.002373 22.983820,60.431973 18.953594,57.195198 
	C14.134689,53.325005 14.394545,47.989780 15.905943,42.189110 
M27.971878,35.080238 
	C22.031488,37.676331 19.392597,41.801529 19.585987,48.189327 
	C19.774191,54.405785 24.978546,57.250511 30.348669,53.953495 
	C34.541748,51.379135 36.056141,47.291531 36.116558,42.565998 
	C36.185932,37.140293 34.463390,35.391838 27.971878,35.080238 
z"/>
<path fill="#FCF1F0" opacity="1.000000" stroke="none" 
	d="
M62.354553,46.470078 
	C57.860748,47.903851 53.648346,49.074463 48.141262,50.604862 
	C46.241020,51.997368 50.581406,58.996277 42.658028,59.153042 
	C44.225353,49.656067 45.719833,40.600487 47.279549,31.149611 
	C51.384743,31.149611 55.213512,30.835918 58.971836,31.216988 
	C66.099800,31.939713 67.735855,38.909882 62.354553,46.470078 
M59.000408,43.755943 
	C59.508999,41.498634 60.992332,37.655136 60.354595,37.263237 
	C57.821613,35.706673 54.626217,35.228050 51.292152,34.235756 
	C50.637699,38.570309 50.162411,41.718197 49.534161,45.879192 
	C53.055408,45.238968 55.697449,44.758602 59.000408,43.755943 
z"/>
<path fill="#FCF2F1" opacity="1.000000" stroke="none" 
	d="
M69.235977,42.184555 
	C69.947601,38.342960 70.562172,34.925083 71.206825,31.339926 
	C77.035454,31.339926 82.640594,31.339926 88.368889,31.339926 
	C89.079308,36.176041 85.642006,34.893513 83.352531,34.998775 
	C80.713608,35.120098 78.064835,35.026966 75.170158,35.026966 
	C74.688271,37.708355 74.257256,40.106667 73.734482,43.015594 
	C77.548882,43.015594 80.985291,43.015594 85.569916,43.015594 
	C82.602135,49.807869 77.019402,45.408718 73.055145,47.840561 
	C72.723709,49.535809 72.260300,51.906059 71.664276,54.954605 
	C75.933464,54.954605 79.801880,54.954605 83.706535,54.954605 
	C83.334114,59.583630 80.853867,60.054985 66.721817,58.622265 
	C67.528969,53.274693 68.333954,47.941483 69.235977,42.184555 
z"/>
<path fill="#000000" opacity="1.000000" stroke="none" 
	d="
M32.710705,4.374992 
	C35.548096,8.416933 33.347641,10.836605 30.337774,12.647696 
	C29.801628,12.970304 27.353378,11.643306 27.204908,10.821913 
	C26.499956,6.921786 28.342966,4.567772 32.710705,4.374992 
z"/>
<path fill="#000000" opacity="1.000000" stroke="none" 
	d="
M95.854248,10.628427 
	C94.167969,11.774862 92.743530,12.626767 91.319099,13.478672 
	C90.910469,13.180026 90.501839,12.881381 90.093208,12.582735 
	C91.096413,9.757372 92.045990,6.908864 93.231400,4.162139 
	C93.305260,3.991001 96.075882,4.478899 96.144951,4.898397 
	C96.435127,6.660870 96.174835,8.513973 95.854248,10.628427 
z"/>
<path fill="#072A2F" opacity="1.000000" stroke="none" 
	d="
M184.330780,57.154312 
	C179.706482,62.305279 175.783951,63.595749 172.140915,61.405468 
	C168.160309,59.012226 166.971024,53.517334 169.137161,47.527031 
	C171.071014,42.179073 175.725327,38.857750 180.382446,39.691776 
	C184.838287,40.489754 187.018417,43.601906 186.813370,47.810921 
	C186.665314,50.850235 185.348557,53.832615 184.330780,57.154312 
z"/>
<path fill="#05282D" opacity="1.000000" stroke="none" 
	d="
M183.616669,63.737740 
	C183.370178,63.776451 183.279037,63.665058 183.187897,63.553661 
	C183.382599,63.564980 183.577316,63.576302 183.616669,63.737740 
z"/>
<path fill="#0E3035" opacity="1.000000" stroke="none" 
	d="
M153.418793,42.703949 
	C154.037598,44.417698 154.432251,45.823788 154.947693,47.660217 
	C149.268356,47.660217 144.047836,47.660217 136.880630,47.660217 
	C140.088242,44.534042 142.114120,41.644165 144.889297,40.107639 
	C147.769241,38.513119 151.066986,39.281452 153.418793,42.703949 
z"/>
<path fill="#D2362B" opacity="1.000000" stroke="none" 
	d="
M28.368528,35.036751 
	C34.463390,35.391838 36.185932,37.140293 36.116558,42.565998 
	C36.056141,47.291531 34.541748,51.379135 30.348669,53.953495 
	C24.978546,57.250511 19.774191,54.405785 19.585987,48.189327 
	C19.392597,41.801529 22.031488,37.676331 28.368528,35.036751 
z"/>
<path fill="#D2372C" opacity="1.000000" stroke="none" 
	d="
M58.669952,44.017090 
	C55.697449,44.758602 53.055408,45.238968 49.534161,45.879192 
	C50.162411,41.718197 50.637699,38.570309 51.292152,34.235756 
	C54.626217,35.228050 57.821613,35.706673 60.354595,37.263237 
	C60.992332,37.655136 59.508999,41.498634 58.669952,44.017090 
z"/>
</svg>